<svg version="1.1" xmlns="http://www.w3.org/2000/svg" xmlns:xlink="http://www.w3.org/1999/xlink" width="1698" height="1202"><defs/><g transform="translate(1342.0880100302184,329.7845233611799) scale(2.4010544003210117,2.4010544003210117)"><path fill="none" stroke="rgb(0,48,127)" paint-order="fill stroke markers" d=" M 58.063336118638574 164.27761604965312 L -165.55003976760952 113.29454088232885" stroke-opacity="0.5" stroke-linejoin="round" stroke-miterlimit="10"/><path fill="rgb(255,255,255)" stroke="none" paint-order="stroke fill markers" d=" M -158.0507024000735 110.54273437607189 L -167.5 112.84995670346547 L -159.98464357812924 119.0250613869705 Z" fill-opacity="1"/><path fill="rgb(0,48,127)" stroke="none" paint-order="stroke fill markers" d=" M -158.0507024000735 110.54273437607189 L -167.5 112.84995670346547 L -159.98464357812924 119.0250613869705 Z" fill-opacity="0.5"/><path fill="none" stroke="rgb(0,48,127)" paint-order="fill stroke markers" d=" M -95.47465934915691 264.1774931607688 L -172.20080063787032 124.22604152855584" stroke-opacity="0.5" stroke-linejoin="round" stroke-miterlimit="10"/><path fill="rgb(255,255,255)" stroke="none" paint-order="stroke fill markers" d=" M -165.16553356632704 128.00989105411298 L -173.16225940984026 122.47230351225977 L -172.79429393721492 132.19223671218228 Z" fill-opacity="1"/><path fill="rgb(0,48,127)" stroke="none" paint-order="stroke fill markers" d=" M -165.16553356632704 128.00989105411298 L -173.16225940984026 122.47230351225977 L -172.79429393721492 132.19223671218228 Z" fill-opacity="0.5"/><path fill="none" stroke="rgb(0,48,127)" paint-order="fill stroke markers" d=" M -465.026303727627 111.31848157473628 L -194.49997860209385 110.06707435198402" stroke-opacity="0.5" stroke-linejoin="round" stroke-miterlimit="10"/><path fill="rgb(255,255,255)" stroke="none" paint-order="stroke fill markers" d=" M -201.17978479910602 114.44802050211617 L -192.5 110.05782280255774 L -201.22002903911036 105.74811358300798 Z" fill-opacity="1"/><path fill="rgb(0,48,127)" stroke="none" paint-order="stroke fill markers" d=" M -201.17978479910602 114.44802050211617 L -192.5 110.05782280255774 L -201.22002903911036 105.74811358300798 Z" fill-opacity="0.5"/><path fill="none" stroke="rgb(0,48,127)" paint-order="fill stroke markers" d=" M -253.89593006992106 296.89048879332665 L -185.6778571034236 124.35989084044874" stroke-opacity="0.5" stroke-linejoin="round" stroke-miterlimit="10"/><path fill="rgb(255,255,255)" stroke="none" paint-order="stroke fill markers" d=" M -184.09616835760147 132.19000965891755 L -184.94246192964636 122.5 L -192.18669351355345 128.99104065298644 Z" fill-opacity="1"/><path fill="rgb(0,48,127)" stroke="none" paint-order="stroke fill markers" d=" M -184.09616835760147 132.19000965891755 L -184.94246192964636 122.5 L -192.18669351355345 128.99104065298644 Z" fill-opacity="0.5"/><path fill="none" stroke="rgb(0,48,127)" paint-order="fill stroke markers" d=" M -339.77024277462823 188.6314569580356 L -194.29445110242034 117.0350617053528" stroke-opacity="0.5" stroke-linejoin="round" stroke-miterlimit="10"/><path fill="rgb(255,255,255)" stroke="none" paint-order="stroke fill markers" d=" M -198.38502173582228 123.89652888760686 L -192.5 116.15191662043046 L -202.2267028552345 116.09066659207846 Z" fill-opacity="1"/><path fill="rgb(0,48,127)" stroke="none" paint-order="stroke fill markers" d=" M -198.38502173582228 123.89652888760686 L -192.5 116.15191662043046 L -202.2267028552345 116.09066659207846 Z" fill-opacity="0.5"/><path fill="none" stroke="rgb(0,48,127)" paint-order="fill stroke markers" d=" M -331.8595136956209 -4.897652803088803 L -193.4662486344684 99.81137024273352" stroke-opacity="0.5" stroke-linejoin="round" stroke-miterlimit="10"/><path fill="rgb(255,255,255)" stroke="none" paint-order="stroke fill markers" d=" M -201.43390245728165 99.23779151247074 L -191.87131932951388 101.01810157662571 L -196.18462115485056 92.29984903591853 Z" fill-opacity="1"/><path fill="rgb(0,48,127)" stroke="none" paint-order="stroke fill markers" d=" M -201.43390245728165 99.23779151247074 L -191.87131932951388 101.01810157662571 L -196.18462115485056 92.29984903591853 Z" fill-opacity="0.5"/><path fill="none" stroke="rgb(0,48,127)" paint-order="fill stroke markers" d=" M -145.4498251032694 -51.636228894128635 L -176.9100303228987 95.54418183130171" stroke-opacity="0.5" stroke-linejoin="round" stroke-miterlimit="10"/><path fill="rgb(255,255,255)" stroke="none" paint-order="stroke fill markers" d=" M -179.76342932282344 88.08290753348713 L -177.32809167125515 97.50000000000001 L -171.25562028898582 89.90147439883765 Z" fill-opacity="1"/><path fill="rgb(0,48,127)" stroke="none" paint-order="stroke fill markers" d=" M -179.76342932282344 88.08290753348713 L -177.32809167125515 97.50000000000001 L -171.25562028898582 89.90147439883765 Z" fill-opacity="0.5"/><path fill="rgb(230,50,50)" stroke="none" paint-order="stroke fill markers" d=" M -180 97.5 L -173.75 97.5 L -173.75 97.5 A 6.25 6.25 0 0 1 -167.5 103.75 L -167.5 116.25 L -167.5 116.25 A 6.25 6.25 0 0 1 -173.75 122.5 L -186.25 122.5 L -186.25 122.5 A 6.25 6.25 0 0 1 -192.5 116.25 L -192.5 103.75 L -192.5 103.75 A 6.25 6.25 0 0 1 -186.25 97.5 L -180 97.5 Z" fill-opacity="1"/><text fill="rgb(230,50,50)" stroke="none" font-family="Source Sans Pro, sans-serif" font-size="16px" font-style="normal" font-weight="bold" text-decoration="normal" x="-180" y="97.5" text-anchor="middle" dominant-baseline="text-after-edge" fill-opacity="1">Classical Domain</text><path fill="rgb(95,69,130)" stroke="none" paint-order="stroke fill markers" d=" M 68.24251792471654 179.09843424357516 L 80.74251792471654 166.59843424357516 L 68.24251792471654 154.09843424357516 L 55.74251792471654 166.59843424357516 Z" fill-opacity="1"/><text fill="rgb(95,69,130)" stroke="none" font-family="Source Sans Pro, sans-serif" font-size="16px" font-style="normal" font-weight="400" text-decoration="normal" x="68.24251792471654" y="154.09843424357516" text-anchor="middle" dominant-baseline="text-after-edge" fill-opacity="1">Sphere packing</text><path fill="rgb(95,69,130)" stroke="none" paint-order="stroke fill markers" d=" M -91.04837441041421 284.7512082220261 L -78.54837441041421 272.2512082220261 L -91.04837441041421 259.7512082220261 L -103.54837441041421 272.2512082220261 Z" fill-opacity="1"/><text fill="rgb(95,69,130)" stroke="none" font-family="Source Sans Pro, sans-serif" font-size="16px" font-style="normal" font-weight="400" text-decoration="normal" x="-91.04837441041421" y="259.7512082220261" text-anchor="middle" dominant-baseline="text-after-edge" fill-opacity="1">Binary</text><path fill="rgb(95,69,130)" stroke="none" paint-order="stroke fill markers" d=" M -477.46874717157937 123.87603813078391 L -464.96874717157937 111.37603813078391 L -477.46874717157937 98.87603813078391 L -489.96874717157937 111.37603813078391 Z" fill-opacity="1"/><text fill="rgb(95,69,130)" stroke="none" font-family="Source Sans Pro, sans-serif" font-size="16px" font-style="normal" font-weight="400" text-decoration="normal" x="-477.46874717157937" y="98.87603813078391" text-anchor="middle" dominant-baseline="text-after-edge" fill-opacity="1">Group-alphabet</text><path fill="rgb(95,69,130)" stroke="none" paint-order="stroke fill markers" d=" M -257.43790564480094 318.3485132184468 L -244.93790564480094 305.8485132184468 L -257.43790564480094 293.3485132184468 L -269.93790564480094 305.8485132184468 Z" fill-opacity="1"/><text fill="rgb(95,69,130)" stroke="none" font-family="Source Sans Pro, sans-serif" font-size="16px" font-style="normal" font-weight="400" text-decoration="normal" x="-257.43790564480094" y="293.3485132184468" text-anchor="middle" dominant-baseline="text-after-edge" fill-opacity="1">Matrix-based</text><path fill="rgb(95,69,130)" stroke="none" paint-order="stroke fill markers" d=" M -348.1473979581792 205.25430177448462 L -335.6473979581792 192.75430177448462 L -348.1473979581792 180.25430177448462 L -360.6473979581792 192.75430177448462 Z" fill-opacity="1"/><text fill="rgb(95,69,130)" stroke="none" font-family="Source Sans Pro, sans-serif" font-size="16px" font-style="normal" font-weight="400" text-decoration="normal" x="-348.1473979581792" y="180.25430177448462" text-anchor="middle" dominant-baseline="text-after-edge" fill-opacity="1">q-ary</text><path fill="rgb(95,69,130)" stroke="none" paint-order="stroke fill markers" d=" M -338.9755134121812 2.2183469134715494 L -326.4755134121812 -10.28165308652845 L -338.9755134121812 -22.78165308652845 L -351.4755134121812 -10.28165308652845 Z" fill-opacity="1"/><text fill="rgb(95,69,130)" stroke="none" font-family="Source Sans Pro, sans-serif" font-size="16px" font-style="normal" font-weight="400" text-decoration="normal" x="-338.9755134121812" y="-22.78165308652845" text-anchor="middle" dominant-baseline="text-after-edge" fill-opacity="1">Ring</text><path fill="rgb(95,69,130)" stroke="none" paint-order="stroke fill markers" d=" M -143.24846365383112 -49.43486744469031 L -130.74846365383112 -61.93486744469031 L -143.24846365383112 -74.43486744469031 L -155.74846365383112 -61.93486744469031 Z" fill-opacity="1"/><text fill="rgb(95,69,130)" stroke="none" font-family="Source Sans Pro, sans-serif" font-size="16px" font-style="normal" font-weight="400" text-decoration="normal" x="-143.24846365383112" y="-74.43486744469031" text-anchor="middle" dominant-baseline="text-after-edge" fill-opacity="1">Constant-energy</text><g transform="scale(0.4164836914425195,0.4164836914425195) translate(-1342.0880100302184,-329.7845233611799)"/></g></svg>