<svg version="1.1" xmlns="http://www.w3.org/2000/svg" xmlns:xlink="http://www.w3.org/1999/xlink" width="1698" height="1202"><defs/><g transform="translate(755.9238090467347,288.6847870588619) scale(2.296676867627813,2.296676867627813)"><path fill="none" stroke="rgb(0,48,127)" paint-order="fill stroke markers" d=" M 182.5212066298427 -2.9335828821206036 L 14.04474842670814 101.30992069473405" stroke-opacity="0.5" stroke-linejoin="round" stroke-miterlimit="10"/><path fill="rgb(255,255,255)" stroke="none" paint-order="stroke fill markers" d=" M 17.453477538196033 94.08544383862224 L 12.343985743188284 102.3622544318851 L 22.03112929480323 101.48376151193358 Z" fill-opacity="1"/><path fill="rgb(0,48,127)" stroke="none" paint-order="stroke fill markers" d=" M 17.453477538196033 94.08544383862224 L 12.343985743188284 102.3622544318851 L 22.03112929480323 101.48376151193358 Z" fill-opacity="0.5"/><path fill="none" stroke="rgb(0,48,127)" paint-order="fill stroke markers" d=" M 294.6615067081074 169.3357421904351 L 14.460643412647698 112.91192772013702" stroke-opacity="0.5" stroke-linejoin="round" stroke-miterlimit="10"/><path fill="rgb(255,255,255)" stroke="none" paint-order="stroke fill markers" d=" M 21.887517405028344 109.97015228661053 L 12.5 112.51711458909753 L 20.17008028500661 118.498951131628 Z" fill-opacity="1"/><path fill="rgb(0,48,127)" stroke="none" paint-order="stroke fill markers" d=" M 21.887517405028344 109.97015228661053 L 12.5 112.51711458909753 L 20.17008028500661 118.498951131628 Z" fill-opacity="0.5"/><path fill="none" stroke="rgb(0,48,127)" paint-order="fill stroke markers" d=" M 121.9046575419944 229.33907103372607 L 12.210585555569708 121.95360346652497" stroke-opacity="0.5" stroke-linejoin="round" stroke-miterlimit="10"/><path fill="rgb(255,255,255)" stroke="none" paint-order="stroke fill markers" d=" M 20.0413445823226 123.53211956239733 L 10.781412886823006 120.55450894401856 L 13.955283409419755 129.7490206714455 Z" fill-opacity="1"/><path fill="rgb(0,48,127)" stroke="none" paint-order="stroke fill markers" d=" M 20.0413445823226 123.53211956239733 L 10.781412886823006 120.55450894401856 L 13.955283409419755 129.7490206714455 Z" fill-opacity="0.5"/><path fill="none" stroke="rgb(0,48,127)" paint-order="fill stroke markers" d=" M 3.475900438287925 306.2969878969448 L 0.25675109578260935 124.49968652329716" stroke-opacity="0.5" stroke-linejoin="round" stroke-miterlimit="10"/><path fill="rgb(255,255,255)" stroke="none" paint-order="stroke fill markers" d=" M 4.724689966725192 131.12162145543903 L 0.22134193674642377 122.5 L -3.9739464096175277 131.2756512972464 Z" fill-opacity="1"/><path fill="rgb(0,48,127)" stroke="none" paint-order="stroke fill markers" d=" M 4.724689966725192 131.12162145543903 L 0.22134193674642377 122.5 L -3.9739464096175277 131.2756512972464 Z" fill-opacity="0.5"/><path fill="none" stroke="rgb(0,48,127)" paint-order="fill stroke markers" d=" M -145.39562211539712 238.99442267351597 L -12.754639759573593 121.31586610557676" stroke-opacity="0.5" stroke-linejoin="round" stroke-miterlimit="10"/><path fill="rgb(255,255,255)" stroke="none" paint-order="stroke fill markers" d=" M -14.879588517268783 129.01632666174933 L -11.258564222777238 119.98855378807212 L -20.653397098413933 122.50839807668521 Z" fill-opacity="1"/><path fill="rgb(0,48,127)" stroke="none" paint-order="stroke fill markers" d=" M -14.879588517268783 129.01632666174933 L -11.258564222777238 119.98855378807212 L -20.653397098413933 122.50839807668521 Z" fill-opacity="0.5"/><path fill="none" stroke="rgb(0,48,127)" paint-order="fill stroke markers" d=" M -246.40508396993573 117.97132064691496 L -14.498954267732728 110.46904800684696" stroke-opacity="0.5" stroke-linejoin="round" stroke-miterlimit="10"/><path fill="rgb(255,255,255)" stroke="none" paint-order="stroke fill markers" d=" M -21.054800093705655 115.0334083679571 L -12.5 110.40438089377488 L -21.33610203556916 106.33795730331968 Z" fill-opacity="1"/><path fill="rgb(0,48,127)" stroke="none" paint-order="stroke fill markers" d=" M -21.054800093705655 115.0334083679571 L -12.5 110.40438089377488 L -21.33610203556916 106.33795730331968 Z" fill-opacity="0.5"/><path fill="none" stroke="rgb(0,48,127)" paint-order="fill stroke markers" d=" M -112.18916210981764 -21.854464080019056 L -11.029303092618207 97.03740342556667" stroke-opacity="0.5" stroke-linejoin="round" stroke-miterlimit="10"/><path fill="rgb(255,255,255)" stroke="none" paint-order="stroke fill markers" d=" M -18.68411900593523 94.75348281984753 L -9.733249435910011 98.56063844319635 L -12.058046679246086 89.11564941316689 Z" fill-opacity="1"/><path fill="rgb(0,48,127)" stroke="none" paint-order="stroke fill markers" d=" M -18.68411900593523 94.75348281984753 L -9.733249435910011 98.56063844319635 L -12.058046679246086 89.11564941316689 Z" fill-opacity="0.5"/><path fill="rgb(230,50,50)" stroke="none" paint-order="stroke fill markers" d=" M 0 97.5 L 6.25 97.5 L 6.25 97.5 A 6.25 6.25 0 0 1 12.5 103.75 L 12.5 116.25 L 12.5 116.25 A 6.25 6.25 0 0 1 6.25 122.5 L -6.25 122.5 L -6.25 122.5 A 6.25 6.25 0 0 1 -12.5 116.25 L -12.5 103.75 L -12.5 103.75 A 6.25 6.25 0 0 1 -6.25 97.5 L 0 97.5 Z" fill-opacity="1"/><text fill="rgb(230,50,50)" stroke="none" font-family="Source Sans Pro, sans-serif" font-size="16px" font-style="normal" font-weight="bold" text-decoration="normal" x="0" y="97.5" text-anchor="middle" dominant-baseline="text-after-edge" fill-opacity="1">Quantum Domain</text><path fill="rgb(50,108,110)" stroke="none" paint-order="stroke fill markers" d=" M 190.24325130084526 4.788461788881939 L 202.74325130084526 -7.711538211118061 L 190.24325130084526 -20.21153821111806 L 177.74325130084526 -7.711538211118061 Z" fill-opacity="1"/><text fill="rgb(50,108,110)" stroke="none" font-family="Source Sans Pro, sans-serif" font-size="16px" font-style="normal" font-weight="400" text-decoration="normal" x="190.24325130084526" y="-20.21153821111806" text-anchor="middle" dominant-baseline="text-after-edge" fill-opacity="1">Category-based quantum</text><path fill="rgb(50,108,110)" stroke="none" paint-order="stroke fill markers" d=" M 305.066301788611 183.93094710993157 L 317.566301788611 171.43094710993157 L 305.066301788611 158.93094710993157 L 292.566301788611 171.43094710993157 Z" fill-opacity="1"/><text fill="rgb(50,108,110)" stroke="none" font-family="Source Sans Pro, sans-serif" font-size="16px" font-style="normal" font-weight="400" text-decoration="normal" x="305.066301788611" y="158.93094710993157" text-anchor="middle" dominant-baseline="text-after-edge" fill-opacity="1">Group-based quantum</text><path fill="rgb(50,108,110)" stroke="none" paint-order="stroke fill markers" d=" M 128.221125241575 248.02260333414546 L 140.721125241575 235.52260333414546 L 128.221125241575 223.02260333414546 L 115.72112524157501 235.52260333414546 Z" fill-opacity="1"/><text fill="rgb(50,108,110)" stroke="none" font-family="Source Sans Pro, sans-serif" font-size="16px" font-style="normal" font-weight="400" text-decoration="normal" x="128.221125241575" y="223.02260333414546" text-anchor="middle" dominant-baseline="text-after-edge" fill-opacity="1">Bosonic</text><path fill="rgb(50,108,110)" stroke="none" paint-order="stroke fill markers" d=" M 3.6933911891133775 331.07949714611937 L 16.193391189113377 318.57949714611937 L 3.6933911891133775 306.07949714611937 L -8.806608810886623 318.57949714611937 Z" fill-opacity="1"/><text fill="rgb(50,108,110)" stroke="none" font-family="Source Sans Pro, sans-serif" font-size="16px" font-style="normal" font-weight="400" text-decoration="normal" x="3.6933911891133775" y="306.07949714611937" text-anchor="middle" dominant-baseline="text-after-edge" fill-opacity="1">Qubit</text><path fill="rgb(50,108,110)" stroke="none" paint-order="stroke fill markers" d=" M -152.019205262667 257.37083952624613 L -139.519205262667 244.87083952624613 L -152.019205262667 232.37083952624613 L -164.519205262667 244.87083952624613 Z" fill-opacity="1"/><text fill="rgb(50,108,110)" stroke="none" font-family="Source Sans Pro, sans-serif" font-size="16px" font-style="normal" font-weight="400" text-decoration="normal" x="-152.019205262667" y="232.37083952624613" text-anchor="middle" dominant-baseline="text-after-edge" fill-opacity="1">Modular-qudit</text><path fill="rgb(50,108,110)" stroke="none" paint-order="stroke fill markers" d=" M -258.5133750445874 130.8630295722633 L -246.0133750445874 118.36302957226329 L -258.5133750445874 105.86302957226329 L -271.0133750445874 118.36302957226329 Z" fill-opacity="1"/><text fill="rgb(50,108,110)" stroke="none" font-family="Source Sans Pro, sans-serif" font-size="16px" font-style="normal" font-weight="400" text-decoration="normal" x="-258.5133750445874" y="105.86302957226329" text-anchor="middle" dominant-baseline="text-after-edge" fill-opacity="1">Galois-qudit</text><path fill="rgb(50,108,110)" stroke="none" paint-order="stroke fill markers" d=" M -117.93553028286655 -16.10809590697015 L -105.43553028286655 -28.60809590697015 L -117.93553028286655 -41.10809590697015 L -130.43553028286655 -28.60809590697015 Z" fill-opacity="1"/><text fill="rgb(50,108,110)" stroke="none" font-family="Source Sans Pro, sans-serif" font-size="16px" font-style="normal" font-weight="400" text-decoration="normal" x="-117.93553028286655" y="-41.10809590697015" text-anchor="middle" dominant-baseline="text-after-edge" fill-opacity="1">Spin</text><g transform="scale(0.43541170901977083,0.43541170901977083) translate(-755.9238090467347,-288.6847870588619)"/></g></svg>