<?xml version="1.0" encoding="UTF-8" standalone="no"?><!DOCTYPE svg PUBLIC "-//W3C//DTD SVG 1.1//EN" "http://www.w3.org/Graphics/SVG/1.1/DTD/svg11.dtd"><svg width="100%" height="100%" viewBox="0 0 257 256" version="1.1" xmlns="http://www.w3.org/2000/svg" xmlns:xlink="http://www.w3.org/1999/xlink" xml:space="preserve" xmlns:serif="http://www.serif.com/" style="fill-rule:evenodd;clip-rule:evenodd;stroke-linejoin:round;stroke-miterlimit:2;"><rect id="eczoo_icon_flat" x="0.805" y="0" width="256" height="256" style="fill:none;"/><g><g><g><g><rect x="0.805" y="0" width="256" height="256" style="fill:#ededf6;"/></g></g></g><g><g><g><path d="M56.116,123.202l0,-73.499l44.279,0l0,11.014l-31.242,-0l-0,18.768l26.41,-0l-0,11.013l-26.41,0l-0,21.69l32.366,0l0,11.014l-45.403,-0Z" style="fill:#00007f;fill-rule:nonzero;"/></g></g><g><g><path d="M135.156,150.154c-4.608,-0 -8.991,-0.787 -13.037,-2.473c-4.046,-1.686 -7.529,-4.046 -10.451,-7.305c-3.035,-3.259 -5.395,-7.192 -7.081,-11.912c-1.685,-4.72 -2.584,-10.115 -2.584,-16.183c-0,-5.957 0.899,-11.351 2.697,-16.184c1.686,-4.72 4.158,-8.766 7.192,-12.025c3.035,-3.259 6.519,-5.844 10.677,-7.529c4.046,-1.686 8.428,-2.585 13.036,-2.585c4.608,-0 8.766,0.899 12.362,2.809c3.597,1.911 6.519,4.046 8.879,6.519l-6.968,8.428c-1.911,-1.91 -4.046,-3.483 -6.294,-4.72c-2.247,-1.123 -4.832,-1.685 -7.642,-1.685c-3.034,-0 -5.731,0.562 -8.204,1.798c-2.584,1.236 -4.72,3.034 -6.518,5.282c-1.91,2.36 -3.259,5.169 -4.27,8.428c-1.012,3.26 -1.574,6.968 -1.574,11.126c0,8.429 1.798,14.947 5.507,19.667c3.596,4.833 8.541,7.193 14.722,7.193c3.259,-0 6.181,-0.674 8.766,-2.135c2.585,-1.349 4.833,-3.147 6.968,-5.395l6.968,8.204c-3.035,3.484 -6.406,6.069 -10.227,7.867c-3.934,1.911 -8.204,2.81 -12.924,2.81Z" style="fill:#00007f;fill-rule:nonzero;"/></g></g><g><g><path d="M67.463,207.311l-0,-6.039l22.596,-32.92l-20.064,-0l0,-8.864l34.09,0l-0,5.942l-22.499,32.92l23.278,0l-0,8.961l-37.401,-0Z" style="fill:#00007f;fill-rule:nonzero;"/></g><g><path d="M133.012,208.48c-3.019,-0 -5.844,-0.585 -8.571,-1.656c-2.727,-1.071 -5.162,-2.727 -7.207,-4.87c-2.143,-2.143 -3.799,-4.773 -5.065,-7.889c-1.266,-3.117 -1.851,-6.623 -1.851,-10.617c0,-3.993 0.585,-7.499 1.851,-10.616c1.266,-3.117 2.922,-5.747 5.065,-7.889c2.045,-2.143 4.48,-3.799 7.207,-4.968c2.727,-1.071 5.552,-1.655 8.571,-1.655c3.019,-0 5.844,0.584 8.669,1.655c2.727,1.169 5.162,2.825 7.207,4.968c2.045,2.142 3.799,4.772 5.065,7.889c1.169,3.117 1.85,6.623 1.85,10.616c0,3.994 -0.681,7.5 -1.85,10.617c-1.266,3.116 -3.02,5.746 -5.065,7.889c-2.045,2.143 -4.48,3.799 -7.207,4.87c-2.825,1.071 -5.65,1.656 -8.669,1.656Zm0,-9.156c3.506,0 6.234,-1.461 8.279,-4.383c2.045,-2.824 3.019,-6.72 3.019,-11.493c0,-4.87 -0.974,-8.766 -3.019,-11.688c-2.045,-2.824 -4.773,-4.285 -8.279,-4.285c-3.506,-0 -6.233,1.461 -8.181,4.285c-2.046,2.922 -3.02,6.818 -3.02,11.688c0,4.773 0.974,8.669 3.02,11.493c1.948,2.922 4.675,4.383 8.181,4.383Z" style="fill:#00007f;fill-rule:nonzero;"/></g><g><path d="M186.484,208.48c-3.02,-0 -5.844,-0.585 -8.571,-1.656c-2.727,-1.071 -5.162,-2.727 -7.208,-4.87c-2.142,-2.143 -3.798,-4.773 -5.064,-7.889c-1.267,-3.117 -1.851,-6.623 -1.851,-10.617c-0,-3.993 0.584,-7.499 1.851,-10.616c1.266,-3.117 2.922,-5.747 5.064,-7.889c2.046,-2.143 4.481,-3.799 7.208,-4.968c2.727,-1.071 5.551,-1.655 8.571,-1.655c3.019,-0 5.844,0.584 8.668,1.655c2.727,1.169 5.162,2.825 7.208,4.968c2.045,2.142 3.798,4.772 5.064,7.889c1.169,3.117 1.851,6.623 1.851,10.616c0,3.994 -0.682,7.5 -1.851,10.617c-1.266,3.116 -3.019,5.746 -5.064,7.889c-2.046,2.143 -4.481,3.799 -7.208,4.87c-2.824,1.071 -5.649,1.656 -8.668,1.656Zm-0,-9.156c3.506,0 6.233,-1.461 8.279,-4.383c2.045,-2.824 3.019,-6.72 3.019,-11.493c0,-4.87 -0.974,-8.766 -3.019,-11.688c-2.046,-2.824 -4.773,-4.285 -8.279,-4.285c-3.507,-0 -6.234,1.461 -8.182,4.285c-2.045,2.922 -3.019,6.818 -3.019,11.688c0,4.773 0.974,8.669 3.019,11.493c1.948,2.922 4.675,4.383 8.182,4.383Z" style="fill:#00007f;fill-rule:nonzero;"/></g></g></g></g></svg>