<?xml version="1.0" encoding="UTF-8" standalone="no"?><!DOCTYPE svg PUBLIC "-//W3C//DTD SVG 1.1//EN" "http://www.w3.org/Graphics/SVG/1.1/DTD/svg11.dtd"><svg width="100%" height="100%" viewBox="0 0 150 148" version="1.1" xmlns="http://www.w3.org/2000/svg" xmlns:xlink="http://www.w3.org/1999/xlink" xml:space="preserve" xmlns:serif="http://www.serif.com/" style="fill-rule:evenodd;clip-rule:evenodd;stroke-linejoin:round;stroke-miterlimit:2;"><rect id="eczoo-main-logo-mobile" x="0.922" y="0.542" width="148.558" height="147.247" style="fill:none;"/><g><path d="M7.986,69.913l-0,-55.657l33.53,-0l0,8.34l-23.658,-0l-0,14.212l19.999,0l-0,8.34l-19.999,0l-0,16.425l24.509,-0l0,8.34l-34.381,0Z" style="fill:#a3a3c2;fill-rule:nonzero;"/><path d="M67.839,90.322c-3.518,0 -6.808,-0.624 -9.872,-1.872c-3.064,-1.248 -5.716,-3.092 -7.957,-5.531c-2.241,-2.44 -4.014,-5.447 -5.319,-9.021c-1.305,-3.575 -1.957,-7.66 -1.957,-12.255c-0,-4.539 0.666,-8.61 1.999,-12.212c1.334,-3.603 3.149,-6.652 5.447,-9.149c2.298,-2.496 4.993,-4.397 8.085,-5.702c3.092,-1.305 6.397,-1.957 9.914,-1.957c3.518,-0 6.638,0.709 9.362,2.128c2.723,1.418 4.964,3.063 6.723,4.935l-5.277,6.383c-1.475,-1.475 -3.063,-2.652 -4.765,-3.532c-1.703,-0.879 -3.632,-1.319 -5.787,-1.319c-2.27,0 -4.355,0.468 -6.256,1.405c-1.9,0.936 -3.545,2.269 -4.935,3.999c-1.39,1.731 -2.468,3.844 -3.234,6.34c-0.766,2.497 -1.149,5.305 -1.149,8.426c-0,6.354 1.376,11.332 4.127,14.935c2.752,3.603 6.482,5.404 11.191,5.404c2.497,0 4.709,-0.525 6.638,-1.574c1.929,-1.05 3.688,-2.426 5.277,-4.128l5.276,6.213c-2.269,2.61 -4.865,4.609 -7.787,5.999c-2.922,1.39 -6.17,2.085 -9.744,2.085Z" style="fill:#a3a3c2;fill-rule:nonzero;"/><path d="M16.578,133.605l0,-4.573l17.111,-24.929l-15.193,-0l-0,-6.712l25.814,-0l0,4.499l-17.037,24.929l17.627,0l0,6.786l-28.322,-0Z" style="fill:#a3a3c2;fill-rule:nonzero;"/><path d="M66.216,134.49c-2.262,-0 -4.426,-0.418 -6.491,-1.254c-2.065,-0.836 -3.897,-2.065 -5.495,-3.688c-1.598,-1.622 -2.864,-3.614 -3.798,-5.974c-0.934,-2.36 -1.401,-5.04 -1.401,-8.039c-0,-3 0.467,-5.679 1.401,-8.04c0.934,-2.36 2.2,-4.351 3.798,-5.974c1.598,-1.622 3.43,-2.864 5.495,-3.725c2.065,-0.86 4.229,-1.29 6.491,-1.29c2.261,-0 4.437,0.43 6.527,1.29c2.09,0.861 3.921,2.103 5.495,3.725c1.573,1.623 2.839,3.614 3.798,5.974c0.959,2.361 1.438,5.04 1.438,8.04c0,2.999 -0.479,5.679 -1.438,8.039c-0.959,2.36 -2.225,4.352 -3.798,5.974c-1.574,1.623 -3.405,2.852 -5.495,3.688c-2.09,0.836 -4.266,1.254 -6.527,1.254Zm-0,-6.933c2.655,-0 4.745,-1.094 6.269,-3.282c1.524,-2.188 2.286,-5.102 2.286,-8.74c0,-3.688 -0.762,-6.626 -2.286,-8.814c-1.524,-2.188 -3.614,-3.282 -6.269,-3.282c-2.656,-0 -4.733,1.094 -6.233,3.282c-1.499,2.188 -2.249,5.126 -2.249,8.814c-0,3.638 0.75,6.552 2.249,8.74c1.5,2.188 3.577,3.282 6.233,3.282Z" style="fill:#a3a3c2;fill-rule:nonzero;"/><path d="M106.707,134.49c-2.261,-0 -4.425,-0.418 -6.49,-1.254c-2.065,-0.836 -3.897,-2.065 -5.495,-3.688c-1.598,-1.622 -2.864,-3.614 -3.798,-5.974c-0.934,-2.36 -1.402,-5.04 -1.402,-8.039c0,-3 0.468,-5.679 1.402,-8.04c0.934,-2.36 2.2,-4.351 3.798,-5.974c1.598,-1.622 3.43,-2.864 5.495,-3.725c2.065,-0.86 4.229,-1.29 6.49,-1.29c2.262,-0 4.438,0.43 6.528,1.29c2.09,0.861 3.921,2.103 5.495,3.725c1.573,1.623 2.839,3.614 3.798,5.974c0.959,2.361 1.438,5.04 1.438,8.04c0,2.999 -0.479,5.679 -1.438,8.039c-0.959,2.36 -2.225,4.352 -3.798,5.974c-1.574,1.623 -3.405,2.852 -5.495,3.688c-2.09,0.836 -4.266,1.254 -6.528,1.254Zm0,-6.933c2.656,-0 4.745,-1.094 6.27,-3.282c1.524,-2.188 2.286,-5.102 2.286,-8.74c0,-3.688 -0.762,-6.626 -2.286,-8.814c-1.525,-2.188 -3.614,-3.282 -6.27,-3.282c-2.655,-0 -4.732,1.094 -6.232,3.282c-1.5,2.188 -2.249,5.126 -2.249,8.814c-0,3.638 0.749,6.552 2.249,8.74c1.5,2.188 3.577,3.282 6.232,3.282Z" style="fill:#a3a3c2;fill-rule:nonzero;"/></g></svg>