<?xml version="1.0" encoding="UTF-8" standalone="no"?><!DOCTYPE svg PUBLIC "-//W3C//DTD SVG 1.1//EN" "http://www.w3.org/Graphics/SVG/1.1/DTD/svg11.dtd"><svg width="100%" height="100%" viewBox="0 0 1200 630" version="1.1" xmlns="http://www.w3.org/2000/svg" xmlns:xlink="http://www.w3.org/1999/xlink" xml:space="preserve" xmlns:serif="http://www.serif.com/" style="fill-rule:evenodd;clip-rule:evenodd;stroke-linejoin:round;stroke-miterlimit:10;"><rect id="Artboard1" x="0" y="0" width="1200" height="630" style="fill:none;"/><rect x="0" y="0" width="1200" height="630" style="fill:#00007f;"/><g><g><g transform="matrix(125,0,0,125,272.654,225.584)"></g><text x="205.404px" y="225.584px" style="font-family:'SourceSans3-Semibold', 'Source Sans 3', sans-serif;font-weight:600;font-size:125px;fill:#a3a3c2;">E</text><g transform="matrix(125,0,0,125,332.692,254.062)"></g><text x="260.692px" y="254.062px" style="font-family:'SourceSans3-Semibold', 'Source Sans 3', sans-serif;font-weight:600;font-size:125px;fill:#a3a3c2;">C</text><g transform="matrix(108.333,0,0,108.333,390.574,319.136)"></g><text x="224.716px" y="319.136px" style="font-family:'SourceSans3-Semibold', 'Source Sans 3', sans-serif;font-weight:600;font-size:108.333px;fill:#a3a3c2;">z<tspan x="271.624px " y="319.136px ">o</tspan>o</text></g></g><path d="M1180.05,25c-0,-1.326 -0.527,-2.598 -1.465,-3.536c-0.938,-0.937 -2.209,-1.464 -3.535,-1.464c-53.349,0 -516.7,0 -570.049,0c-1.326,0 -2.598,0.527 -3.536,1.464c-0.937,0.938 -1.464,2.21 -1.464,3.536c-0,53.88 0,526.12 0,580c-0,1.326 0.527,2.598 1.464,3.536c0.938,0.937 2.21,1.464 3.536,1.464c53.349,0 516.7,0 570.049,0c1.326,-0 2.597,-0.527 3.535,-1.464c0.938,-0.938 1.465,-2.21 1.465,-3.536c-0,-53.88 -0,-526.12 -0,-580Z" style="fill:#ffecd9;"/><g><g><path d="M937.734,99.977l-59.834,60.927" style="fill:none;fill-rule:nonzero;stroke:#00307f;stroke-opacity:0.5;stroke-width:1.42px;"/><path d="M879.915,149.773l-3.956,13.194l12.928,-4.752l-8.972,-8.442Z" style="fill:#fff;fill-rule:nonzero;"/><path d="M879.915,149.773l-3.956,13.194l12.928,-4.752l-8.972,-8.442Z" style="fill:#00307f;fill-opacity:0.5;fill-rule:nonzero;"/></g><g><path d="M1052.13,221.156l-169.308,-34.839" style="fill:none;fill-rule:nonzero;stroke:#00307f;stroke-opacity:0.5;stroke-width:1.42px;"/><path d="M893.337,182.151l-13.293,3.607l10.861,8.47l2.432,-12.077Z" style="fill:#fff;fill-rule:nonzero;"/><path d="M893.337,182.151l-13.293,3.607l10.861,8.47l2.432,-12.077Z" style="fill:#00307f;fill-opacity:0.5;fill-rule:nonzero;"/></g><g><path d="M1054.3,149.626l-171.443,22.054" style="fill:none;fill-rule:nonzero;stroke:#00307f;stroke-opacity:0.5;stroke-width:1.42px;"/><path d="M893.029,176.622l-12.985,-4.592l11.465,-7.633l1.52,12.225Z" style="fill:#fff;fill-rule:nonzero;"/><path d="M893.029,176.622l-12.985,-4.592l11.465,-7.633l1.52,12.225Z" style="fill:#00307f;fill-opacity:0.5;fill-rule:nonzero;"/></g><path d="M943.94,246.489l-64.306,-50.369" style="fill:none;fill-rule:nonzero;stroke:#00307f;stroke-opacity:0.5;stroke-width:1.42px;"/><g><path d="M891.057,197.125l-13.447,-2.986l5.679,12.549l7.768,-9.563Z" style="fill:#fff;fill-rule:nonzero;"/><path d="M891.057,197.125l-13.447,-2.986l5.679,12.549l7.768,-9.563Z" style="fill:#00307f;fill-opacity:0.5;fill-rule:nonzero;"/></g><path d="M865.187,260.074l-2.48,-60.348" style="fill:none;fill-rule:nonzero;stroke:#00307f;stroke-opacity:0.5;stroke-width:1.42px;"/><path d="M869.034,209.103l-6.377,-12.209l-5.941,12.427l12.318,-0.218Z" style="fill:#fff;fill-rule:nonzero;"/><path d="M869.034,209.103l-6.377,-12.209l-5.941,12.427l12.318,-0.218Z" style="fill:#00307f;fill-opacity:0.5;fill-rule:nonzero;"/><path d="M745.983,252.234l98.299,-57.017" style="fill:none;fill-rule:nonzero;stroke:#00307f;stroke-opacity:0.5;stroke-width:1.42px;"/><path d="M839.22,205.094l7.176,-11.757l-13.711,1.313l6.535,10.444Z" style="fill:#fff;fill-rule:nonzero;"/><path d="M839.22,205.094l7.176,-11.757l-13.711,1.313l6.535,10.444Z" style="fill:#00307f;fill-opacity:0.5;fill-rule:nonzero;"/><path d="M685.818,184.394l154.06,-4.229" style="fill:none;fill-rule:nonzero;stroke:#00307f;stroke-opacity:0.5;stroke-width:1.42px;"/><path d="M832.529,186.321l12.114,-6.555l-12.512,-5.758l0.398,12.313Z" style="fill:#fff;fill-rule:nonzero;"/><path d="M832.529,186.321l12.114,-6.555l-12.512,-5.758l0.398,12.313Z" style="fill:#00307f;fill-opacity:0.5;fill-rule:nonzero;"/><path d="M779.082,80.819l67.643,80.019" style="fill:none;fill-rule:nonzero;stroke:#00307f;stroke-opacity:0.5;stroke-width:1.42px;"/><path d="M835.886,157.604l12.675,5.391l-3.292,-13.375l-9.383,7.984Z" style="fill:#fff;fill-rule:nonzero;"/><path d="M835.886,157.604l12.675,5.391l-3.292,-13.375l-9.383,7.984Z" style="fill:#00307f;fill-opacity:0.5;fill-rule:nonzero;"/><path d="M853.493,161.493l17.701,0c4.855,0 8.85,3.995 8.85,8.85l-0,17.701c-0,4.855 -3.995,8.85 -8.85,8.85l-17.701,0c-4.855,0 -8.85,-3.995 -8.85,-8.85l-0,-17.701c-0,-4.855 3.995,-8.85 8.85,-8.85Z" style="fill:#e63232;fill-rule:nonzero;"/><text x="769.11px" y="147.97px" style="font-family:'SourceSans3-Bold', 'Source Sans 3', sans-serif;font-weight:700;font-size:22.657px;fill:#e63232;">Quantum Domain</text><path d="M943.589,105.834l17.701,-17.7l-17.701,-17.701l-17.7,17.701l17.7,17.7Z" style="fill:#326c6e;fill-rule:nonzero;"/><g transform="matrix(22.6567,0,0,22.6567,981.426,70.4334)"></g><text x="905.753px" y="70.433px" style="font-family:'SourceSans3-Regular', 'Source Sans 3', sans-serif;font-size:22.657px;fill:#326c6e;">Bosonic</text><path d="M1066.31,238.167l17.7,-17.701l-17.7,-17.7l-17.701,17.7l17.701,17.701Z" style="fill:#326c6e;fill-rule:nonzero;"/><path d="M1070.85,166.67l17.701,-17.7l-17.701,-17.701l-17.7,17.701l17.7,17.7Z" style="fill:#326c6e;fill-rule:nonzero;"/><g transform="matrix(22.6567,0,0,22.6567,1095.71,202.766)"></g><text x="1036.91px" y="202.766px" style="font-family:'SourceSans3-Regular', 'Source Sans 3', sans-serif;font-size:22.657px;fill:#326c6e;">Gr<tspan x="1058.53px " y="202.766px ">o</tspan>up</text><g transform="matrix(22.6567,0,0,22.6567,1170.7,131.269)"></g><text x="970.986px" y="131.269px" style="font-family:'SourceSans3-Regular', 'Source Sans 3', sans-serif;font-size:22.657px;fill:#326c6e;">Homog<tspan x="1040.2px " y="131.269px ">e</tspan>neous<tspan x="1109.39px " y="131.269px ">-</tspan>sp<tspan x="1138.19px 1149.61px 1159.47px " y="131.269px 131.269px 131.269px ">ace</tspan></text><path d="M951.378,271.743l17.701,-17.701l-17.701,-17.7l-17.701,17.7l17.701,17.701Z" style="fill:#326c6e;fill-rule:nonzero;"/><g transform="matrix(22.6567,0,0,22.6567,993.769,236.342)"></g><text x="908.987px" y="236.342px" style="font-family:'SourceSans3-Regular', 'Source Sans 3', sans-serif;font-size:22.657px;fill:#326c6e;">Ca<tspan x="933.026px 940.367px 951.378px 962.48px 974.76px 983.188px " y="236.342px 236.342px 236.342px 236.342px 236.342px 236.342px ">tegory</tspan></text><path d="M864.928,289.444l17.7,-17.701l-17.7,-17.701l-17.701,17.701l17.701,17.701Z" style="fill:#326c6e;fill-rule:nonzero;"/><g transform="matrix(22.6567,0,0,22.6567,886.248,245.917)"></g><text x="843.608px" y="245.917px" style="font-family:'SourceSans3-Regular', 'Source Sans 3', sans-serif;font-size:22.657px;fill:#326c6e;">Spin</text><path d="M736.966,278.618l17.7,-17.7l-17.7,-17.701l-17.701,17.701l17.701,17.7Z" style="fill:#326c6e;fill-rule:nonzero;"/><text x="669.007px" y="243.217px" style="font-family:'SourceSans3-Regular', 'Source Sans 3', sans-serif;font-size:22.657px;fill:#326c6e;">Modular<tspan x="747.173px " y="243.217px ">-</tspan>qudit</text><path d="M668.672,202.649l17.701,-17.7l-17.701,-17.701l-17.7,17.701l17.7,17.7Z" style="fill:#326c6e;fill-rule:nonzero;"/><text x="610.422px" y="167.248px" style="font-family:'SourceSans3-Regular', 'Source Sans 3', sans-serif;font-size:22.657px;fill:#326c6e;">Galois<tspan x="669.171px " y="167.248px ">-</tspan>qudit</text><path d="M770.538,89.363l17.7,-17.7l-17.7,-17.701l-17.701,17.701l17.701,17.7Z" style="fill:#326c6e;fill-rule:nonzero;"/><g transform="matrix(22.6567,0,0,22.6567,797.103,53.9622)"></g><text x="743.973px" y="53.962px" style="font-family:'SourceSans3-Regular', 'Source Sans 3', sans-serif;font-size:22.657px;fill:#326c6e;">Qubit</text></g><g><g><path d="M1040.3,492.028c-47.146,-9.5 -153.421,-30.916 -153.421,-30.916" style="fill:none;fill-rule:nonzero;stroke:#00307f;stroke-opacity:0.5;stroke-width:1.51px;"/><path d="M898.066,456.684l-14.138,3.833l11.55,9.01l2.588,-12.843Z" style="fill:#fff;fill-rule:nonzero;"/><path d="M898.066,456.684l-14.138,3.833l11.55,9.01l2.588,-12.843Z" style="fill:#00307f;fill-opacity:0.5;fill-rule:nonzero;"/></g><g><path d="M1039.51,412.077c-46.908,10.612 -152.648,34.532 -152.648,34.532" style="fill:none;fill-rule:nonzero;stroke:#00307f;stroke-opacity:0.5;stroke-width:1.51px;"/><path d="M895.261,437.994l-11.333,9.28l14.224,3.498l-2.891,-12.778Z" style="fill:#fff;fill-rule:nonzero;"/><path d="M895.261,437.994l-11.333,9.28l14.224,3.498l-2.891,-12.778Z" style="fill:#00307f;fill-opacity:0.5;fill-rule:nonzero;"/></g><path d="M910.388,538.825l-33.539,-61.176" style="fill:none;fill-rule:nonzero;stroke:#00307f;stroke-opacity:0.5;stroke-width:1.51px;"/><path d="M887.444,483.347l-12.043,-8.339l0.554,14.637l11.489,-6.298Z" style="fill:#fff;fill-rule:nonzero;"/><path d="M887.444,483.347l-12.043,-8.339l0.554,14.637l11.489,-6.298Z" style="fill:#00307f;fill-opacity:0.5;fill-rule:nonzero;"/><path d="M703.477,457.428l139.791,-1.101" style="fill:none;fill-rule:nonzero;stroke:#00307f;stroke-opacity:0.5;stroke-width:1.51px;"/><path d="M833.209,462.924l13.071,-6.611l-13.132,-6.49l0.061,13.101Z" style="fill:#fff;fill-rule:nonzero;"/><path d="M833.209,462.924l13.071,-6.611l-13.132,-6.49l0.061,13.101Z" style="fill:#00307f;fill-opacity:0.5;fill-rule:nonzero;"/><path d="M818.362,574.442l38.192,-96.591" style="fill:none;fill-rule:nonzero;stroke:#00307f;stroke-opacity:0.5;stroke-width:1.51px;"/><path d="M858.936,489.642l-1.275,-14.592l-10.909,9.775l12.184,4.817Z" style="fill:#fff;fill-rule:nonzero;"/><path d="M858.936,489.642l-1.275,-14.592l-10.909,9.775l12.184,4.817Z" style="fill:#00307f;fill-opacity:0.5;fill-rule:nonzero;"/><path d="M727.966,525.031l115.612,-58.211" style="fill:none;fill-rule:nonzero;stroke:#00307f;stroke-opacity:0.5;stroke-width:1.51px;"/><path d="M837.418,477.153l8.862,-11.663l-14.648,-0.092l5.786,11.755Z" style="fill:#fff;fill-rule:nonzero;"/><path d="M837.418,477.153l8.862,-11.663l-14.648,-0.092l5.786,11.755Z" style="fill:#00307f;fill-opacity:0.5;fill-rule:nonzero;"/><path d="M761.872,377.36l82.953,63.522" style="fill:none;fill-rule:nonzero;stroke:#00307f;stroke-opacity:0.5;stroke-width:1.51px;"/><path d="M832.826,440.019l14.401,2.681l-6.496,-13.129l-7.905,10.448Z" style="fill:#fff;fill-rule:nonzero;"/><path d="M832.826,440.019l14.401,2.681l-6.496,-13.129l-7.905,10.448Z" style="fill:#00307f;fill-opacity:0.5;fill-rule:nonzero;"/><path d="M910.403,386.035l-38.635,48.421" style="fill:none;fill-rule:nonzero;stroke:#00307f;stroke-opacity:0.5;stroke-width:1.51px;"/><g><path d="M872.139,423.066l-3.011,14.336l13.275,-6.193l-10.264,-8.143Z" style="fill:#fff;fill-rule:nonzero;"/><path d="M872.139,423.066l-3.011,14.336l13.275,-6.193l-10.264,-8.143Z" style="fill:#00307f;fill-opacity:0.5;fill-rule:nonzero;"/></g><path d="M855.692,437.402l18.824,-0c5.163,-0 9.412,4.248 9.412,9.412l0,18.824c0,5.163 -4.249,9.412 -9.412,9.412l-18.824,-0c-5.163,-0 -9.412,-4.249 -9.412,-9.412l0,-18.824c0,-5.164 4.249,-9.412 9.412,-9.412Z" style="fill:#e63232;fill-rule:nonzero;"/><path d="M1046.05,424.037l18.824,-18.824l-18.824,-18.824l-18.824,18.824l18.824,18.824Z" style="fill:#5f4582;fill-rule:nonzero;"/><path d="M1058.28,510.842l18.824,-18.824l-18.824,-18.824l-18.824,18.824l18.824,18.824Z" style="fill:#5f4582;fill-rule:nonzero;"/><g transform="matrix(24.0948,0,0,24.0948,1093.36,386.389)"></g><text x="998.735px" y="386.389px" style="font-family:'SourceSans3-Regular', 'Source Sans 3', sans-serif;font-size:24.095px;fill:#5f4582;">Spheric<tspan x="1075.07px " y="386.389px ">a</tspan>l</text><g transform="matrix(24.0948,0,0,24.0948,1164.48,473.194)"></g><text x="952.08px" y="473.194px" style="font-family:'SourceSans3-Regular', 'Source Sans 3', sans-serif;font-size:24.095px;fill:#5f4582;">Homog<tspan x="1025.69px " y="473.194px ">e</tspan>neous<tspan x="1099.28px " y="473.194px ">-</tspan>sp<tspan x="1129.9px 1142.04px 1152.53px " y="473.194px 473.194px 473.194px ">ace</tspan></text><path d="M915.403,565.483l18.824,-18.824l-18.824,-18.824l-18.824,18.824l18.824,18.824Z" style="fill:#5f4582;fill-rule:nonzero;"/><path d="M693.297,476.684l18.824,-18.824l-18.824,-18.824l-18.824,18.824l18.824,18.824Z" style="fill:#5f4582;fill-rule:nonzero;"/><g transform="matrix(24.0948,0,0,24.0948,752.931,439.036)"></g><text x="633.662px" y="439.036px" style="font-family:'SourceSans3-Regular', 'Source Sans 3', sans-serif;font-size:24.095px;fill:#5f4582;">Galois<tspan x="696.14px " y="439.036px ">-</tspan>Field</text><path d="M812.347,602.842l18.824,-18.824l-18.824,-18.825l-18.824,18.825l18.824,18.824Z" style="fill:#5f4582;fill-rule:nonzero;"/><g transform="matrix(24.0948,0,0,24.0948,843.61,565.193)"></g><text x="781.084px" y="565.193px" style="font-family:'SourceSans3-Regular', 'Source Sans 3', sans-serif;font-size:24.095px;fill:#5f4582;">Gr<tspan x="804.07px " y="565.193px ">o</tspan>up</text><g transform="matrix(24.0948,0,0,24.0948,949.281,527.997)"></g><text x="879.502px" y="527.997px" style="font-family:'SourceSans3-Regular', 'Source Sans 3', sans-serif;font-size:24.095px;fill:#5f4582;">Analog</text><path d="M723.087,545.292l18.825,-18.824l-18.825,-18.824l-18.824,18.824l18.824,18.824Z" style="fill:#5f4582;fill-rule:nonzero;"/><g transform="matrix(24.0948,0,0,24.0948,754.338,507.644)"></g><text x="691.837px" y="507.644px" style="font-family:'SourceSans3-Regular', 'Source Sans 3', sans-serif;font-size:24.095px;fill:#5f4582;">Ma<tspan x="721.16px " y="507.644px ">t</tspan>rix</text><path d="M760.932,396.184l18.824,-18.824l-18.824,-18.824l-18.824,18.824l18.824,18.824Z" style="fill:#5f4582;fill-rule:nonzero;"/><g transform="matrix(24.0948,0,0,24.0948,793.749,358.536)"></g><text x="728.115px" y="358.536px" style="font-family:'SourceSans3-Regular', 'Source Sans 3', sans-serif;font-size:24.095px;fill:#5f4582;">Binar<tspan x="782.497px " y="358.536px ">y</tspan></text><path d="M916.903,392.535l18.824,-18.824l-18.824,-18.824l-18.824,18.824l18.824,18.824Z" style="fill:#5f4582;fill-rule:nonzero;"/><g transform="matrix(24.0948,0,0,24.0948,939.383,354.887)"></g><text x="894.422px" y="354.887px" style="font-family:'SourceSans3-Regular', 'Source Sans 3', sans-serif;font-size:24.095px;fill:#5f4582;">Ring</text><text x="785.363px" y="427.402px" style="font-family:'SourceSans3-Bold', 'Source Sans 3', sans-serif;font-weight:700;font-size:24.095px;fill:#e63232;">Classic<tspan x="857.985px " y="427.402px ">a</tspan>l Domain</text></g><g transform="matrix(1,0,0,1,124.301,501.981)"><text x="0px" y="24.475px" style="font-family:'SourceSans3-SemiboldIt', 'Source Sans 3', sans-serif;font-weight:600;font-style:italic;font-size:34.667px;fill:#bfbfbf;">Z<tspan x="17.16px " y="24.475px ">o</tspan>ok<tspan x="70.027px " y="24.475px ">e</tspan>eper: Vict<tspan x="222.144px " y="24.475px ">o</tspan>r V Albert</text><text x="0px" y="69.541px" style="font-family:'SourceSans3-It', 'Source Sans 3', sans-serif;font-style:italic;font-size:34.667px;fill:#bfbfbf;">Ar<tspan x="29.189px " y="69.541px ">c</tspan>hit<tspan x="81.501px " y="69.541px ">e</tspan>ct<tspan x="125.181px " y="69.541px ">:</tspan> Philippe F<tspan x="279.448px " y="69.541px ">a</tspan>ist</text></g></svg>