<?xml version="1.0" encoding="UTF-8" standalone="no"?><!DOCTYPE svg PUBLIC "-//W3C//DTD SVG 1.1//EN" "http://www.w3.org/Graphics/SVG/1.1/DTD/svg11.dtd"><svg width="100%" height="100%" viewBox="0 0 193 192" version="1.1" xmlns="http://www.w3.org/2000/svg" xmlns:xlink="http://www.w3.org/1999/xlink" xml:space="preserve" xmlns:serif="http://www.serif.com/" style="fill-rule:evenodd;clip-rule:evenodd;stroke-linejoin:round;stroke-miterlimit:2;"><rect id="eczoo-main-logo" x="0" y="0" width="192.751" height="191.789" style="fill:none;"/><g><path d="M10.375,88.25l0,-81.75l49.25,-0l0,12.25l-34.75,-0l0,20.875l29.375,-0l0,12.25l-29.375,0l0,24.125l36,0l0,12.25l-50.5,0Z" style="fill:#a3a3c2;fill-rule:nonzero;"/><path d="M98.288,118.228c-5.167,-0 -10,-0.917 -14.5,-2.75c-4.5,-1.834 -8.396,-4.542 -11.688,-8.125c-3.291,-3.584 -5.895,-8 -7.812,-13.25c-1.917,-5.25 -2.875,-11.25 -2.875,-18c-0,-6.667 0.979,-12.646 2.937,-17.938c1.959,-5.291 4.625,-9.771 8,-13.437c3.375,-3.667 7.334,-6.459 11.875,-8.375c4.542,-1.917 9.396,-2.875 14.563,-2.875c5.167,-0 9.75,1.041 13.75,3.125c4,2.083 7.292,4.5 9.875,7.25l-7.75,9.375c-2.167,-2.167 -4.5,-3.896 -7,-5.188c-2.5,-1.291 -5.333,-1.937 -8.5,-1.937c-3.333,-0 -6.396,0.687 -9.188,2.062c-2.791,1.375 -5.208,3.334 -7.25,5.875c-2.041,2.542 -3.625,5.646 -4.75,9.313c-1.125,3.666 -1.687,7.791 -1.687,12.375c-0,9.333 2.021,16.646 6.062,21.937c4.042,5.292 9.521,7.938 16.438,7.938c3.667,-0 6.917,-0.771 9.75,-2.313c2.833,-1.541 5.417,-3.562 7.75,-6.062l7.75,9.125c-3.333,3.833 -7.146,6.771 -11.438,8.812c-4.291,2.042 -9.062,3.063 -14.312,3.063Z" style="fill:#a3a3c2;fill-rule:nonzero;"/><path d="M22.995,181.802l0,-6.717l25.134,-36.617l-22.317,0l0,-9.858l37.917,-0l-0,6.608l-25.025,36.617l25.891,-0l0,9.967l-41.6,-0Z" style="fill:#a3a3c2;fill-rule:nonzero;"/><path d="M95.904,183.102c-3.322,-0 -6.5,-0.614 -9.534,-1.842c-3.033,-1.228 -5.723,-3.033 -8.07,-5.417c-2.348,-2.383 -4.207,-5.308 -5.58,-8.775c-1.372,-3.466 -2.058,-7.403 -2.058,-11.808c0,-4.406 0.686,-8.342 2.058,-11.808c1.373,-3.467 3.232,-6.392 5.58,-8.775c2.347,-2.384 5.037,-4.207 8.07,-5.471c3.034,-1.264 6.212,-1.896 9.534,-1.896c3.322,-0 6.518,0.632 9.587,1.896c3.07,1.264 5.76,3.087 8.071,5.471c2.311,2.383 4.171,5.308 5.579,8.775c1.409,3.466 2.113,7.402 2.113,11.808c-0,4.405 -0.704,8.342 -2.113,11.808c-1.408,3.467 -3.268,6.392 -5.579,8.775c-2.311,2.384 -5.001,4.189 -8.071,5.417c-3.069,1.228 -6.265,1.842 -9.587,1.842Zm-0,-10.184c3.9,0 6.969,-1.607 9.208,-4.821c2.239,-3.214 3.358,-7.493 3.358,-12.837c0,-5.417 -1.119,-9.732 -3.358,-12.946c-2.239,-3.214 -5.308,-4.821 -9.208,-4.821c-3.9,0 -6.952,1.607 -9.154,4.821c-2.203,3.214 -3.305,7.529 -3.305,12.946c0,5.344 1.102,9.623 3.305,12.837c2.202,3.214 5.254,4.821 9.154,4.821Z" style="fill:#a3a3c2;fill-rule:nonzero;"/><path d="M155.379,183.102c-3.322,-0 -6.5,-0.614 -9.534,-1.842c-3.033,-1.228 -5.723,-3.033 -8.07,-5.417c-2.348,-2.383 -4.207,-5.308 -5.58,-8.775c-1.372,-3.466 -2.058,-7.403 -2.058,-11.808c0,-4.406 0.686,-8.342 2.058,-11.808c1.373,-3.467 3.232,-6.392 5.58,-8.775c2.347,-2.384 5.037,-4.207 8.07,-5.471c3.034,-1.264 6.212,-1.896 9.534,-1.896c3.322,-0 6.518,0.632 9.587,1.896c3.07,1.264 5.76,3.087 8.071,5.471c2.311,2.383 4.171,5.308 5.579,8.775c1.409,3.466 2.113,7.402 2.113,11.808c-0,4.405 -0.704,8.342 -2.113,11.808c-1.408,3.467 -3.268,6.392 -5.579,8.775c-2.311,2.384 -5.001,4.189 -8.071,5.417c-3.069,1.228 -6.265,1.842 -9.587,1.842Zm-0,-10.184c3.9,0 6.969,-1.607 9.208,-4.821c2.239,-3.214 3.358,-7.493 3.358,-12.837c0,-5.417 -1.119,-9.732 -3.358,-12.946c-2.239,-3.214 -5.308,-4.821 -9.208,-4.821c-3.9,0 -6.952,1.607 -9.154,4.821c-2.203,3.214 -3.305,7.529 -3.305,12.946c0,5.344 1.102,9.623 3.305,12.837c2.202,3.214 5.254,4.821 9.154,4.821Z" style="fill:#a3a3c2;fill-rule:nonzero;"/></g></svg>