<?xml version="1.0" encoding="UTF-8" standalone="no"?><!DOCTYPE svg PUBLIC "-//W3C//DTD SVG 1.1//EN" "http://www.w3.org/Graphics/SVG/1.1/DTD/svg11.dtd"><svg width="100%" height="100%" viewBox="0 0 33 32" version="1.1" xmlns="http://www.w3.org/2000/svg" xmlns:xlink="http://www.w3.org/1999/xlink" xml:space="preserve" xmlns:serif="http://www.serif.com/" style="fill-rule:evenodd;clip-rule:evenodd;stroke-linejoin:round;stroke-miterlimit:2;"><rect id="Artboard1" x="0.314" y="0" width="32" height="32" style="fill:none;"/><clipPath id="_clip1"><rect id="Artboard11" serif:id="Artboard1" x="0.314" y="0" width="32" height="32"/></clipPath><g clip-path="url(#_clip1)"><path d="M16.308,-50.198c-37.48,0 -67.867,30.388 -67.867,67.875c-0,29.988 19.446,55.425 46.417,64.405c3.395,0.62 4.633,-1.475 4.633,-3.275c-0,-1.609 -0.058,-5.88 -0.092,-11.542c-18.879,4.1 -22.862,-9.1 -22.862,-9.1c-3.088,-7.838 -7.538,-9.925 -7.538,-9.925c-6.162,-4.213 0.467,-4.129 0.467,-4.129c6.812,0.483 10.396,6.996 10.396,6.996c6.054,10.37 15.887,7.375 19.754,5.641c0.617,-4.387 2.367,-7.379 4.308,-9.075c-15.071,-1.712 -30.916,-7.537 -30.916,-33.546c-0,-7.408 2.645,-13.466 6.987,-18.212c-0.7,-1.717 -3.029,-8.617 0.663,-17.963c-0,0 5.7,-1.825 18.666,6.959c5.413,-1.504 11.221,-2.259 16.992,-2.284c5.762,0.025 11.571,0.78 16.992,2.284c12.958,-8.784 18.645,-6.959 18.645,-6.959c3.705,9.346 1.375,16.246 0.675,17.963c4.35,4.746 6.98,10.804 6.98,18.212c-0,26.075 -15.871,31.813 -30.992,33.492c2.437,2.096 4.608,6.238 4.608,12.571c0,9.071 -0.083,16.392 -0.083,18.617c-0,1.816 1.221,3.929 4.667,3.266c26.95,-8.996 46.379,-34.416 46.379,-64.396c-0,-37.487 -30.392,-67.875 -67.879,-67.875" style="fill:#181717;"/><path d="M16.312,0.395c-8.835,-0 -15.998,7.163 -15.998,16c-0,7.07 4.584,13.066 10.942,15.183c0.8,0.146 1.092,-0.348 1.092,-0.772c0,-0.379 -0.014,-1.386 -0.021,-2.721c-4.451,0.966 -5.39,-2.145 -5.39,-2.145c-0.728,-1.848 -1.777,-2.34 -1.777,-2.34c-1.453,-0.993 0.11,-0.973 0.11,-0.973c1.606,0.114 2.451,1.649 2.451,1.649c1.427,2.445 3.745,1.738 4.657,1.33c0.145,-1.035 0.558,-1.74 1.015,-2.14c-3.552,-0.403 -7.288,-1.776 -7.288,-7.907c0,-1.747 0.624,-3.175 1.647,-4.294c-0.165,-0.404 -0.714,-2.031 0.156,-4.234c0,-0 1.344,-0.43 4.401,1.64c1.276,-0.354 2.645,-0.532 4.005,-0.538c1.359,0.006 2.728,0.184 4.006,0.538c3.055,-2.07 4.395,-1.64 4.395,-1.64c0.874,2.203 0.325,3.83 0.16,4.234c1.025,1.119 1.645,2.547 1.645,4.294c-0,6.146 -3.742,7.499 -7.306,7.895c0.575,0.494 1.086,1.47 1.086,2.963c0,2.138 -0.019,3.864 -0.019,4.389c-0,0.428 0.287,0.926 1.1,0.77c6.353,-2.121 10.933,-8.113 10.933,-15.181c-0,-8.837 -7.164,-16 -16.002,-16" style="fill:#fff;"/></g></svg>