<?xml version="1.0" encoding="UTF-8" standalone="no"?>
<!DOCTYPE svg PUBLIC "-//W3C//DTD SVG 1.1//EN" "http://www.w3.org/Graphics/SVG/1.1/DTD/svg11.dtd">
<svg width="100%" height="100%" viewBox="0 0 32 32" version="1.1" xmlns="http://www.w3.org/2000/svg" xmlns:xlink="http://www.w3.org/1999/xlink" xml:space="preserve" xmlns:serif="http://www.serif.com/" style="fill-rule:evenodd;clip-rule:evenodd;stroke-linejoin:round;stroke-miterlimit:2;">
    <rect id="share-icon" x="0" y="0" width="32" height="32" style="fill:none;"/>
    <g id="share-icon1" serif:id="share-icon">
        <path d="M26.402,19.342C26.402,19.342 26.672,15.327 26.806,11.836C26.908,9.177 26.92,6.831 26.92,6.831L26.92,5.791L25.879,5.791C25.879,5.791 23.588,5.821 20.99,5.925C17.579,6.061 13.655,6.309 13.655,6.309L13.655,7.354C13.655,7.354 17.579,7.602 20.99,7.738C22.516,7.799 23.937,7.835 24.849,7.854C24.863,8.786 24.892,10.256 24.952,11.836C25.086,15.327 25.356,19.342 25.356,19.342L26.402,19.342Z"/>
        <path d="M6.37,27.08C6.37,27.08 11.424,22.196 16.449,17.28C21.473,12.365 26.467,7.42 26.467,7.42L25.29,6.243C25.29,6.243 20.345,11.237 15.43,16.262C10.514,21.287 5.63,26.341 5.63,26.341L6.37,27.08Z"/>
    </g>
</svg>
