<svg version="1.1" xmlns="http://www.w3.org/2000/svg" xmlns:xlink="http://www.w3.org/1999/xlink" viewBox="0 0 1509 740" width="1200" preserveAspectRatio="xMidYMid meet"><style>@import url('https://fonts.googleapis.com/css2?family=Source+Sans+Pro:ital,wght@0,300;0,400;0,600;1,300;1,400;1,600&#x26;display=swap');</style><defs/><g transform="translate(387.6786577699303,22) scale(1,1)"><path fill="none" stroke="rgb(0,48,127)" paint-order="fill stroke markers" d=" M -63.42855328828759 272.7082472893037 L 16.286783593219695 358.24857466292787" stroke-opacity="0.667" stroke-linejoin="round" stroke-miterlimit="10" stroke-width="2"/><path fill="rgb(255,255,255)" stroke="none" paint-order="stroke fill markers" d=" M 9.900157036180879 357.77581550550565 L 19.013819739106523 361.1748818680973 L 16.264875207424456 351.8445118882018 Z" fill-opacity="1"/><path fill="rgb(0,48,127)" stroke="none" paint-order="stroke fill markers" d=" M 9.900157036180879 357.77581550550565 L 19.013819739106523 361.1748818680973 L 16.264875207424456 351.8445118882018 Z" fill-opacity="0.667"/><path fill="none" stroke="rgb(0,48,127)" paint-order="fill stroke markers" d=" M 181.20227481411587 285.5928134810437 L 30.475497900221796 360.8139257769128" stroke-opacity="0.667" stroke-linejoin="round" stroke-miterlimit="10" stroke-width="2"/><path fill="rgb(255,255,255)" stroke="none" paint-order="stroke fill markers" d=" M 32.73845296415459 354.8229713972984 L 26.89643879855214 362.6000769314223 L 36.623331725212715 362.6074249434299 Z" fill-opacity="1"/><path fill="rgb(0,48,127)" stroke="none" paint-order="stroke fill markers" d=" M 32.73845296415459 354.8229713972984 L 26.89643879855214 362.6000769314223 L 36.623331725212715 362.6074249434299 Z" fill-opacity="0.667"/><path fill="none" stroke="rgb(0,48,127)" paint-order="fill stroke markers" d=" M 427.40352882627735 400.5748950191777 L 31.387767058079078 365.6239972992167" stroke-opacity="0.667" stroke-linejoin="round" stroke-miterlimit="10" stroke-width="2"/><path fill="rgb(255,255,255)" stroke="none" paint-order="stroke fill markers" d=" M 36.45199725133972 361.7040390660633 L 27.403254997361728 365.27233888825776 L 35.687140207504115 370.37035279812346 Z" fill-opacity="1"/><path fill="rgb(0,48,127)" stroke="none" paint-order="stroke fill markers" d=" M 36.45199725133972 361.7040390660633 L 27.403254997361728 365.27233888825776 L 35.687140207504115 370.37035279812346 Z" fill-opacity="0.667"/><path fill="none" stroke="rgb(0,48,127)" paint-order="fill stroke markers" d=" M -117.95214535231682 417.5876418757798 L 13.997910556780624 367.9988922724888" stroke-opacity="0.667" stroke-linejoin="round" stroke-miterlimit="10" stroke-width="2"/><path fill="rgb(255,255,255)" stroke="none" paint-order="stroke fill markers" d=" M 11.12863714755586 373.7242542787829 L 17.74222360775147 366.59172498452006 L 8.068048296223846 365.5803733929213 Z" fill-opacity="1"/><path fill="rgb(0,48,127)" stroke="none" paint-order="stroke fill markers" d=" M 11.12863714755586 373.7242542787829 L 17.74222360775147 366.59172498452006 L 8.068048296223846 365.5803733929213 Z" fill-opacity="0.667"/><path fill="none" stroke="rgb(0,48,127)" paint-order="fill stroke markers" d=" M 944.3510432538711 417.8611335539514 L 710.1918147852899 355.4950342711271" stroke-opacity="0.667" stroke-linejoin="round" stroke-miterlimit="10" stroke-width="2"/><path fill="rgb(255,255,255)" stroke="none" paint-order="stroke fill markers" d=" M 715.85304021955 352.501202849272 L 706.3265613892676 354.46556052957885 L 713.6139348316825 360.9081289856207 Z" fill-opacity="1"/><path fill="rgb(0,48,127)" stroke="none" paint-order="stroke fill markers" d=" M 715.85304021955 352.501202849272 L 706.3265613892676 354.46556052957885 L 713.6139348316825 360.9081289856207 Z" fill-opacity="0.667"/><path fill="none" stroke="rgb(0,48,127)" paint-order="fill stroke markers" d=" M 944.1645057731889 420.78503416616087 L 580.4360336763131 469.40215262496486" stroke-opacity="0.667" stroke-linejoin="round" stroke-miterlimit="10" stroke-width="2" stroke-dasharray="1,1"/><path fill="rgb(255,255,255)" stroke="none" paint-order="stroke fill markers" d=" M 584.5182935767192 464.4678184139961 L 576.4712936239268 469.9320925432616 L 585.6709128990146 473.0911280279362 Z" fill-opacity="1"/><path fill="rgb(0,48,127)" stroke="none" paint-order="stroke fill markers" d=" M 584.5182935767192 464.4678184139961 L 576.4712936239268 469.9320925432616 L 585.6709128990146 473.0911280279362 Z" fill-opacity="0.667"/><path fill="none" stroke="rgb(0,48,127)" paint-order="fill stroke markers" d=" M 691.7034599548709 353.89481648504636 L 446.1839742926328 399.1496584010574" stroke-opacity="0.667" stroke-linejoin="round" stroke-miterlimit="10" stroke-width="2"/><path fill="rgb(255,255,255)" stroke="none" paint-order="stroke fill markers" d=" M 450.01759063642345 394.0197572588695 L 442.25024025697695 399.8747353188551 L 451.5946329326333 402.5756287864209 Z" fill-opacity="1"/><path fill="rgb(0,48,127)" stroke="none" paint-order="stroke fill markers" d=" M 450.01759063642345 394.0197572588695 L 442.25024025697695 399.8747353188551 L 451.5946329326333 402.5756287864209 Z" fill-opacity="0.667"/><path fill="none" stroke="rgb(0,48,127)" paint-order="fill stroke markers" d=" M 562.3817934089716 467.46844472739923 L 445.07976161910995 406.53542512248447" stroke-opacity="0.667" stroke-linejoin="round" stroke-miterlimit="10" stroke-width="2"/><path fill="rgb(255,255,255)" stroke="none" paint-order="stroke fill markers" d=" M 451.25583758660935 404.8417351733862 L 441.53010155685337 404.69153970239444 L 447.2453867979135 412.5622458087943 Z" fill-opacity="1"/><path fill="rgb(0,48,127)" stroke="none" paint-order="stroke fill markers" d=" M 451.25583758660935 404.8417351733862 L 441.53010155685337 404.69153970239444 L 447.2453867979135 412.5622458087943 Z" fill-opacity="0.667"/><path fill="none" stroke="rgb(0,136,63)" paint-order="fill stroke markers" d=" M 561.8245989419315 472.9813110663538 L 304.78901720378667 546.2339985873308" stroke-opacity="0.667" stroke-linejoin="round" stroke-miterlimit="10" stroke-dasharray="6,3"/><path fill="none" stroke="rgb(0,136,63)" paint-order="fill stroke markers" d=" M 562.3159907113143 467.59818181806304 L 194.63442594413493 285.57132813834346" stroke-opacity="0.667" stroke-linejoin="round" stroke-miterlimit="10" stroke-dasharray="6,3"/><path fill="none" stroke="rgb(0,48,127)" paint-order="fill stroke markers" d=" M 415.4486376538928 293.33942159085854 L 31.277308997102864 363.2220539739189" stroke-opacity="0.667" stroke-linejoin="round" stroke-miterlimit="10" stroke-width="2"/><path fill="rgb(255,255,255)" stroke="none" paint-order="stroke fill markers" d=" M 35.122916262404324 358.1011356225818 L 27.341889407930523 363.937925929759 L 36.67993776635655 366.6606732290317 Z" fill-opacity="1"/><path fill="rgb(0,48,127)" stroke="none" paint-order="stroke fill markers" d=" M 35.122916262404324 358.1011356225818 L 27.341889407930523 363.937925929759 L 36.67993776635655 366.6606732290317 Z" fill-opacity="0.667"/><path fill="none" stroke="rgb(0,48,127)" paint-order="fill stroke markers" d=" M -274.15312437524597 486.830248850409 L -135.4736665418167 424.9144043914929" stroke-opacity="0.667" stroke-linejoin="round" stroke-miterlimit="10" stroke-width="2"/><path fill="rgb(255,255,255)" stroke="none" paint-order="stroke fill markers" d=" M -137.99194324426122 430.802594474186 L -131.8211676830586 423.28368305209403 L -141.53876215745373 422.8584094563871 Z" fill-opacity="1"/><path fill="rgb(0,48,127)" stroke="none" paint-order="stroke fill markers" d=" M -137.99194324426122 430.802594474186 L -131.8211676830586 423.28368305209403 L -141.53876215745373 422.8584094563871 Z" fill-opacity="0.667"/><path fill="none" stroke="rgb(0,48,127)" paint-order="fill stroke markers" d=" M 24.79328212146102 360.4305008862988 L 96.6877564356214 226.92440305731887" stroke-opacity="0.3" stroke-linejoin="round" stroke-miterlimit="10" stroke-width="2"/><path fill="rgb(255,255,255)" stroke="none" paint-order="stroke fill markers" d=" M 98.28929980741174 233.12501261028012 L 98.58429019561817 223.40259106671056 L 90.62935872783865 229.00005168228716 Z" fill-opacity="1"/><path fill="rgb(0,48,127)" stroke="none" paint-order="stroke fill markers" d=" M 98.28929980741174 233.12501261028012 L 98.58429019561817 223.40259106671056 L 90.62935872783865 229.00005168228716 Z" fill-opacity="0.3"/><path fill="none" stroke="rgb(0,48,127)" paint-order="fill stroke markers" d=" M -305.67999630592135 371.0324165200416 L 13.424221164654284 365.0027946879661" stroke-opacity="0.667" stroke-linejoin="round" stroke-miterlimit="10" stroke-width="2"/><path fill="rgb(255,255,255)" stroke="none" paint-order="stroke fill markers" d=" M 8.807240573688707 369.4408111618705 L 17.423507278792442 364.9272263264519 L 8.642879387395316 360.7423638636201 Z" fill-opacity="1"/><path fill="rgb(0,48,127)" stroke="none" paint-order="stroke fill markers" d=" M 8.807240573688707 369.4408111618705 L 17.423507278792442 364.9272263264519 L 8.642879387395316 360.7423638636201 Z" fill-opacity="0.667"/><path fill="none" stroke="rgb(0,48,127)" paint-order="fill stroke markers" d=" M -239.06354825443125 294.4880902585459 L 13.73161065051849 362.49472294031074" stroke-opacity="0.667" stroke-linejoin="round" stroke-miterlimit="10" stroke-width="2"/><path fill="rgb(255,255,255)" stroke="none" paint-order="stroke fill markers" d=" M 8.062921001915253 365.4743970278274 L 17.594279215383636 363.53385313331 L 10.32302917168868 357.07309289924575 Z" fill-opacity="1"/><path fill="rgb(0,48,127)" stroke="none" paint-order="stroke fill markers" d=" M 8.062921001915253 365.4743970278274 L 17.594279215383636 363.53385313331 L 10.32302917168868 357.07309289924575 Z" fill-opacity="0.667"/><path fill="none" stroke="rgb(0,136,63)" paint-order="fill stroke markers" d=" M -240.90511238374043 297.7435517814539 L 72.74588554379082 599.9477688173868" stroke-opacity="0.667" stroke-linejoin="round" stroke-miterlimit="10" stroke-dasharray="6,3"/><path fill="none" stroke="rgb(0,48,127)" paint-order="fill stroke markers" d=" M 290.3107243024831 546.4287423620054 L 47.00037680204994 484.11205684384674" stroke-opacity="0.667" stroke-linejoin="round" stroke-miterlimit="10" stroke-width="2"/><path fill="rgb(255,255,255)" stroke="none" paint-order="stroke fill markers" d=" M 52.632700273971416 481.06419984135425 L 43.12545103269932 483.11961022965414 L 50.474128888102484 489.4921633896919 Z" fill-opacity="1"/><path fill="rgb(0,48,127)" stroke="none" paint-order="stroke fill markers" d=" M 52.632700273971416 481.06419984135425 L 43.12545103269932 483.11961022965414 L 50.474128888102484 489.4921633896919 Z" fill-opacity="0.667"/><path fill="none" stroke="rgb(0,136,63)" paint-order="fill stroke markers" d=" M 290.31601576813836 550.1709563800788 L 85.40701932548089 603.2702228357061" stroke-opacity="0.667" stroke-linejoin="round" stroke-miterlimit="10" stroke-dasharray="6,3"/><path fill="none" stroke="rgb(0,136,63)" paint-order="fill stroke markers" d=" M 290.0771227794078 548.4065800112106 L -110.92048898679201 554.6629173133837" stroke-opacity="0.667" stroke-linejoin="round" stroke-miterlimit="10" stroke-dasharray="6,3"/><path fill="none" stroke="rgb(0,48,127)" paint-order="fill stroke markers" d=" M 35.000058301507174 473.80823190138267 L 23.45450321785673 373.77341498655153" stroke-opacity="0.667" stroke-linejoin="round" stroke-miterlimit="10" stroke-width="2"/><path fill="rgb(255,255,255)" stroke="none" paint-order="stroke fill markers" d=" M 28.314691954546472 377.94367462400265 L 22.995886197238207 369.79979315899936 L 19.672064479620516 378.94116664384796 Z" fill-opacity="1"/><path fill="rgb(0,48,127)" stroke="none" paint-order="stroke fill markers" d=" M 28.314691954546472 377.94367462400265 L 22.995886197238207 369.79979315899936 L 19.672064479620516 378.94116664384796 Z" fill-opacity="0.667"/><path fill="none" stroke="rgb(0,48,127)" paint-order="fill stroke markers" d=" M 174.73546775005403 432.65948744979767 L 46.71451032106046 477.4602401450031" stroke-opacity="0.667" stroke-linejoin="round" stroke-miterlimit="10" stroke-width="2"/><path fill="rgb(255,255,255)" stroke="none" paint-order="stroke fill markers" d=" M 49.713879436406216 471.80194668231405 L 42.93901637118444 478.78146890432134 L 52.58755198792335 480.01364602329437 Z" fill-opacity="1"/><path fill="rgb(0,48,127)" stroke="none" paint-order="stroke fill markers" d=" M 49.713879436406216 471.80194668231405 L 42.93901637118444 478.78146890432134 L 52.58755198792335 480.01364602329437 Z" fill-opacity="0.667"/><path fill="none" stroke="rgb(0,136,63)" paint-order="fill stroke markers" d=" M 187.0643636384965 435.5384070357356 L 292.32636538759056 542.933356253957" stroke-opacity="0.667" stroke-linejoin="round" stroke-miterlimit="10" stroke-dasharray="6,3"/><path fill="none" stroke="rgb(0,48,127)" paint-order="fill stroke markers" d=" M -111.6490544582135 551.5534591901211 L 25.47849834908135 486.2060089966899" stroke-opacity="0.667" stroke-linejoin="round" stroke-miterlimit="10" stroke-width="2"/><path fill="rgb(255,255,255)" stroke="none" paint-order="stroke fill markers" d=" M 23.106983832821495 492.1548255932214 L 29.08944334598067 484.48523119889967 L 19.36429212262778 484.3010202249654 Z" fill-opacity="1"/><path fill="rgb(0,48,127)" stroke="none" paint-order="stroke fill markers" d=" M 23.106983832821495 492.1548255932214 L 29.08944334598067 484.48523119889967 L 19.36429212262778 484.3010202249654 Z" fill-opacity="0.667"/><path fill="none" stroke="rgb(0,48,127)" paint-order="fill stroke markers" d=" M 51.409873845112095 123.47945860690164 L 3.4149346589114558 25.940116706295626" stroke-opacity="0.3" stroke-linejoin="round" stroke-miterlimit="10" stroke-width="2"/><path fill="rgb(255,255,255)" stroke="none" paint-order="stroke fill markers" d=" M 9.39307911535094 28.236698700900195 L 1.6489221243197392 22.35107787568026 L 1.5869196587625105 32.07777596363718 Z" fill-opacity="1"/><path fill="rgb(0,48,127)" stroke="none" paint-order="stroke fill markers" d=" M 9.39307911535094 28.236698700900195 L 1.6489221243197392 22.35107787568026 L 1.5869196587625105 32.07777596363718 Z" fill-opacity="0.3"/><path fill="none" stroke="rgb(0,48,127)" paint-order="fill stroke markers" d=" M 75.7241700517381 598.0536600941884 L 39.57470276202756 492.1422798436122" stroke-opacity="0.667" stroke-linejoin="round" stroke-miterlimit="10" stroke-width="2" stroke-dasharray="1,1"/><path fill="rgb(255,255,255)" stroke="none" paint-order="stroke fill markers" d=" M 45.209704674025055 495.1851819865975 L 38.28262013703255 488.3567121860229 L 36.97609501876836 497.99546169596164 Z" fill-opacity="1"/><path fill="rgb(0,48,127)" stroke="none" paint-order="stroke fill markers" d=" M 45.209704674025055 495.1851819865975 L 38.28262013703255 488.3567121860229 L 36.97609501876836 497.99546169596164 Z" fill-opacity="0.667"/><path fill="none" stroke="rgb(0,136,63)" paint-order="fill stroke markers" d=" M 70.88157963878982 603.2898233579604 L -111.15433099258581 556.6416936551858" stroke-opacity="0.667" stroke-linejoin="round" stroke-miterlimit="10" stroke-dasharray="6,3"/><path fill="none" stroke="rgb(0,48,127)" paint-order="fill stroke markers" d=" M 3.797004015372238 702.5864244368075 L 71.17057603783897 614.293915941234" stroke-opacity="0.667" stroke-linejoin="round" stroke-miterlimit="10" stroke-width="2"/><path fill="rgb(255,255,255)" stroke="none" paint-order="stroke fill markers" d=" M 71.7775940143034 620.6691829298588 L 73.59709740680063 611.1139797711243 L 64.86123284431464 615.3914989523672 Z" fill-opacity="1"/><path fill="rgb(0,48,127)" stroke="none" paint-order="stroke fill markers" d=" M 71.7775940143034 620.6691829298588 L 73.59709740680063 611.1139797711243 L 64.86123284431464 615.3914989523672 Z" fill-opacity="0.667"/><path fill="none" stroke="rgb(0,48,127)" paint-order="fill stroke markers" d=" M 98.64941119578852 214.56360919313175 L 56.61300468597865 133.67013823415033" stroke-opacity="0.3" stroke-linejoin="round" stroke-miterlimit="10" stroke-width="2"/><path fill="rgb(255,255,255)" stroke="none" paint-order="stroke fill markers" d=" M 62.64016180404176 135.83482691250137 L 54.768567726118164 130.12076472589558 L 54.920274423587685 139.84647730019793 Z" fill-opacity="1"/><path fill="rgb(0,48,127)" stroke="none" paint-order="stroke fill markers" d=" M 62.64016180404176 135.83482691250137 L 54.768567726118164 130.12076472589558 L 54.920274423587685 139.84647730019793 Z" fill-opacity="0.3"/><path fill="rgb(50,108,110)" stroke="none" paint-order="stroke fill markers" d=" M 0 24 L 5 19 L 0 14 L -5 19 Z" fill-opacity="0.3"/><text fill="none" stroke="rgb(255,255,255)" font-family="Source Sans Pro" font-size="32px" font-style="normal" font-weight="bold" text-decoration="normal" x="0" y="14" text-anchor="middle" dominant-baseline="text-after-edge" stroke-opacity="0.15" stroke-linejoin="round" stroke-miterlimit="10" stroke-width="2">Bosonic Kingdom</text><text fill="rgb(50,108,110)" stroke="none" font-family="Source Sans Pro" font-size="32px" font-style="normal" font-weight="bold" text-decoration="normal" x="0" y="14" text-anchor="middle" dominant-baseline="text-after-edge" fill-opacity="0.3">Bosonic Kingdom</text><path fill="rgb(50,108,110)" stroke="none" paint-order="stroke fill markers" d=" M -61.04174606182539 267.2214212796109 L -61.06486605882694 267.8098644975698 L -61.13408350736186 268.39467976741264 L -61.24897165884282 268.9722615085302 L -61.40882218961174 269.539048737423 L -61.61264956799074 270.0915470223491 L -61.85919713041263 270.6263500276575 L -62.1469448291697 271.14016051498055 L -62.474118604013285 271.6298106718045 L -62.83870131982516 272.0922816420873 L -63.238445202926286 272.52472213851 L -63.670885699349014 272.9244660216112 L -64.13335666963184 273.289048737423 L -64.62300682645578 273.61622251226663 L -65.13681731377879 273.9039702110237 L -65.67162031908722 274.1505177734456 L -66.22411860401328 274.3543451518246 L -66.7909058329061 274.5141956825935 L -67.36848757402366 274.62908383407444 L -67.95330284386655 274.6983012826094 L -68.54174606182539 274.7214212796109 L -69.13018927978423 274.6983012826094 L -69.71500454962712 274.62908383407444 L -70.29258629074468 274.5141956825935 L -70.8593735196375 274.3543451518246 L -71.41187180456356 274.1505177734456 L -71.946674809872 273.9039702110237 L -72.460485297195 273.61622251226663 L -72.95013545401893 273.289048737423 L -73.41260642430177 272.9244660216112 L -73.8450469207245 272.52472213851 L -74.24479080382562 272.0922816420873 L -74.6093735196375 271.6298106718045 L -74.93654729448109 271.14016051498055 L -75.22429499323815 270.6263500276575 L -75.47084255566004 270.0915470223491 L -75.67466993403904 269.539048737423 L -75.83452046480797 268.9722615085302 L -75.94940861628892 268.39467976741264 L -76.01862606482385 267.8098644975698 L -76.04174606182539 267.2214212796109 L -76.01862606482385 266.63297806165207 L -75.94940861628892 266.0481627918092 L -75.83452046480797 265.47058105069164 L -75.67466993403904 264.90379382179884 L -75.47084255566004 264.3512955368727 L -75.22429499323815 263.81649253156434 L -74.93654729448109 263.3026820442413 L -74.6093735196375 262.81303188741737 L -74.24479080382562 262.35056091713454 L -73.8450469207245 261.91812042071183 L -73.41260642430177 261.5183765376107 L -72.95013545401895 261.15379382179884 L -72.460485297195 260.8266200469552 L -71.946674809872 260.53887234819814 L -71.41187180456356 260.29232478577626 L -70.85937351963749 260.08849740739726 L -70.29258629074467 259.92864687662836 L -69.71500454962711 259.8137587251474 L -69.1301892797842 259.74454127661244 L -68.54174606182536 259.7214212796109 L -67.95330284386652 259.74454127661244 L -67.36848757402363 259.8137587251474 L -66.79090583290606 259.92864687662836 L -66.22411860401326 260.08849740739726 L -65.67162031908718 260.29232478577626 L -65.13681731377875 260.5388723481982 L -64.62300682645574 260.82662004695527 L -64.13335666963181 261.15379382179884 L -63.67088569934897 261.5183765376107 L -63.23844520292624 261.91812042071183 L -62.83870131982512 262.3505609171346 L -62.47411860401325 262.8130318874174 L -62.14694482916967 263.30268204424135 L -61.8591971304126 263.8164925315644 L -61.612649567990715 264.35129553687284 L -61.40882218961172 264.9037938217989 L -61.2489716588428 265.4705810506917 L -61.134083507361844 266.04816279180926 L -61.06486605882692 266.6329780616522 Z" fill-opacity="1"/><text fill="none" stroke="rgb(255,255,255)" font-family="Source Sans Pro" font-size="18px" font-style="normal" font-weight="normal" text-decoration="normal" x="-68.54174606182539" y="259.7214212796109" text-anchor="middle" dominant-baseline="text-after-edge" stroke-opacity="0.5" stroke-linejoin="round" stroke-miterlimit="10" stroke-width="2">Bosonic q-ary expansion</text><text fill="rgb(50,108,110)" stroke="none" font-family="Source Sans Pro" font-size="18px" font-style="normal" font-weight="normal" text-decoration="normal" x="-68.54174606182539" y="259.7214212796109" text-anchor="middle" dominant-baseline="text-after-edge" fill-opacity="1">Bosonic q-ary expansion</text><path fill="rgb(50,108,110)" stroke="none" paint-order="stroke fill markers" d=" M 195.41301062974648 282.24378006633845 L 195.38989063274494 282.8322232842973 L 195.32067318421002 283.41703855414016 L 195.20578503272907 283.99462029525773 L 195.04593450196012 284.5614075241505 L 194.84210712358114 285.11390580907664 L 194.59555956115923 285.64870881438503 L 194.30781186240216 286.1625193017081 L 193.9806380875586 286.652169458532 L 193.6160553717467 287.1146404288148 L 193.2163114886456 287.54708092523754 L 192.78387099222286 287.9468248083387 L 192.32140002194004 288.3114075241505 L 191.8317498651161 288.63858129899415 L 191.3179393777931 288.9263289977512 L 190.78313637248465 289.1728765601731 L 190.2306380875586 289.3767039385521 L 189.66385085866577 289.536554469321 L 189.08626911754823 289.65144262080196 L 188.5014538477053 289.72066006933693 L 187.91301062974648 289.74378006633845 L 187.32456741178765 289.72066006933693 L 186.73975214194476 289.65144262080196 L 186.1621704008272 289.536554469321 L 185.59538317193437 289.3767039385521 L 185.0428848870083 289.1728765601731 L 184.5080818816999 288.9263289977512 L 183.99427139437685 288.63858129899415 L 183.50462123755293 288.3114075241505 L 183.0421502672701 287.9468248083387 L 182.6097097708474 287.54708092523754 L 182.20996588774625 287.1146404288148 L 181.84538317193437 286.652169458532 L 181.5182093970908 286.1625193017081 L 181.23046169833373 285.64870881438503 L 180.98391413591182 285.11390580907664 L 180.78008675753284 284.5614075241505 L 180.6202362267639 283.99462029525773 L 180.50534807528294 283.41703855414016 L 180.43613062674802 282.8322232842973 L 180.41301062974648 282.24378006633845 L 180.43613062674802 281.6553368483796 L 180.50534807528294 281.0705215785367 L 180.6202362267639 280.49293983741916 L 180.78008675753284 279.92615260852637 L 180.98391413591182 279.37365432360025 L 181.23046169833373 278.83885131829186 L 181.5182093970908 278.3250408309688 L 181.84538317193437 277.8353906741449 L 182.20996588774625 277.37291970386207 L 182.60970977084736 276.94047920743935 L 183.0421502672701 276.54073532433824 L 183.50462123755293 276.17615260852637 L 183.99427139437685 275.84897883368274 L 184.5080818816999 275.56123113492566 L 185.0428848870083 275.3146835725038 L 185.59538317193437 275.1108561941248 L 186.1621704008272 274.9510056633559 L 186.73975214194476 274.83611751187493 L 187.32456741178765 274.76690006333996 L 187.9130106297465 274.74378006633845 L 188.50145384770533 274.76690006333996 L 189.08626911754826 274.83611751187493 L 189.6638508586658 274.9510056633559 L 190.23063808755862 275.1108561941248 L 190.7831363724847 275.3146835725038 L 191.31793937779312 275.5612311349257 L 191.83174986511614 275.8489788336828 L 192.32140002194006 276.17615260852637 L 192.7838709922229 276.54073532433824 L 193.21631148864563 276.94047920743935 L 193.61605537174674 277.3729197038621 L 193.98063808755862 277.83539067414495 L 194.30781186240222 278.3250408309689 L 194.59555956115926 278.8388513182919 L 194.84210712358117 279.37365432360036 L 195.04593450196015 279.9261526085264 L 195.20578503272907 280.4929398374192 L 195.32067318421002 281.0705215785368 L 195.38989063274494 281.6553368483797 Z" fill-opacity="1"/><text fill="none" stroke="rgb(255,255,255)" font-family="Source Sans Pro" font-size="18px" font-style="normal" font-weight="normal" text-decoration="normal" x="187.91301062974648" y="274.74378006633845" text-anchor="middle" dominant-baseline="text-after-edge" stroke-opacity="0.5" stroke-linejoin="round" stroke-miterlimit="10" stroke-width="2">\chi^{(2)} code</text><text fill="rgb(50,108,110)" stroke="none" font-family="Source Sans Pro" font-size="18px" font-style="normal" font-weight="normal" text-decoration="normal" x="187.91301062974648" y="274.74378006633845" text-anchor="middle" dominant-baseline="text-after-edge" fill-opacity="1">\chi^{(2)} code</text><path fill="rgb(50,108,110)" stroke="none" paint-order="stroke fill markers" d=" M 442.37448894012226 401.2342545397256 L 442.35136894312075 401.82269775768447 L 442.2821514945858 402.40751302752733 L 442.1672633431048 402.9850947686449 L 442.00741281233593 403.5518819975377 L 441.8035854339569 404.1043802824638 L 441.55703787153504 404.6391832877722 L 441.26929017277797 405.15299377509524 L 440.94211639793434 405.64264393191917 L 440.5775336821225 406.105114902202 L 440.17778979902135 406.5375553986247 L 439.74534930259864 406.93729928172587 L 439.2828783323158 407.3018819975377 L 438.7932281754919 407.6290557723813 L 438.27941768816885 407.9168034711384 L 437.74461468286046 408.1633510335603 L 437.19211639793434 408.3671784119393 L 436.62532916904155 408.52702894270817 L 436.047747427924 408.6419170941891 L 435.4629321580811 408.7111345427241 L 434.87448894012226 408.7342545397256 L 434.2860457221634 408.7111345427241 L 433.70123045232054 408.6419170941891 L 433.123648711203 408.52702894270817 L 432.5568614823102 408.3671784119393 L 432.00436319738407 408.1633510335603 L 431.4695601920757 407.9168034711384 L 430.95574970475263 407.6290557723813 L 430.4660995479287 407.3018819975377 L 430.0036285776459 406.93729928172587 L 429.57118808122317 406.5375553986247 L 429.171444198122 406.105114902202 L 428.8068614823102 405.64264393191917 L 428.47968770746655 405.15299377509524 L 428.1919400087095 404.6391832877722 L 427.9453924462876 404.1043802824638 L 427.7415650679086 403.5518819975377 L 427.5817145371397 402.9850947686449 L 427.46682638565875 402.40751302752733 L 427.3976089371238 401.82269775768447 L 427.37448894012226 401.2342545397256 L 427.3976089371238 400.64581132176676 L 427.46682638565875 400.0609960519239 L 427.5817145371397 399.4834143108063 L 427.7415650679086 398.91662708191353 L 427.9453924462876 398.3641287969874 L 428.1919400087095 397.829325791679 L 428.47968770746655 397.315515304356 L 428.8068614823102 396.82586514753206 L 429.171444198122 396.36339417724923 L 429.57118808122317 395.9309536808265 L 430.0036285776459 395.5312097977254 L 430.4660995479287 395.16662708191353 L 430.95574970475263 394.8394533070699 L 431.4695601920757 394.55170560831283 L 432.0043631973841 394.30515804589095 L 432.5568614823102 394.10133066751195 L 433.123648711203 393.94148013674305 L 433.70123045232054 393.8265919852621 L 434.28604572216346 393.7573745367271 L 434.87448894012226 393.7342545397256 L 435.4629321580811 393.7573745367271 L 436.04774742792404 393.8265919852621 L 436.6253291690416 393.94148013674305 L 437.1921163979344 394.10133066751195 L 437.74461468286046 394.30515804589095 L 438.2794176881689 394.5517056083129 L 438.79322817549195 394.83945330706996 L 439.2828783323159 395.16662708191353 L 439.7453493025987 395.5312097977254 L 440.1777897990214 395.9309536808265 L 440.5775336821225 396.3633941772493 L 440.9421163979344 396.8258651475321 L 441.26929017277797 397.31551530435604 L 441.55703787153504 397.8293257916791 L 441.8035854339569 398.36412879698753 L 442.00741281233593 398.9166270819136 L 442.1672633431049 399.4834143108064 L 442.28215149458583 400.06099605192395 L 442.35136894312075 400.64581132176687 Z" fill-opacity="1"/><text fill="none" stroke="rgb(255,255,255)" font-family="Source Sans Pro" font-size="18px" font-style="normal" font-weight="normal" text-decoration="normal" x="434.87448894012226" y="393.7342545397256" text-anchor="middle" dominant-baseline="text-after-edge" stroke-opacity="0.5" stroke-linejoin="round" stroke-miterlimit="10" stroke-width="2">Chuang-Leung-Yamamoto (CLY) code</text><text fill="rgb(50,108,110)" stroke="none" font-family="Source Sans Pro" font-size="18px" font-style="normal" font-weight="normal" text-decoration="normal" x="434.87448894012226" y="393.7342545397256" text-anchor="middle" dominant-baseline="text-after-edge" fill-opacity="1">Chuang-Leung-Yamamoto (CLY) code</text><path fill="rgb(50,108,110)" stroke="none" paint-order="stroke fill markers" d=" M -117.47273232288717 420.2260805407212 L -117.49585231988871 420.8145237586801 L -117.56506976842364 421.39933902852295 L -117.6799579199046 421.9769207696405 L -117.83980845067352 422.5437079985333 L -118.04363582905252 423.0962062834594 L -118.29018339147441 423.6310092887678 L -118.57793109023147 424.14481977609086 L -118.90510486507506 424.6344699329148 L -119.26968758088694 425.0969409031976 L -119.66943146398806 425.5293813996203 L -120.10187196041079 425.9291252827215 L -120.56434293069361 426.2937079985333 L -121.05399308751755 426.62088177337694 L -121.56780357484057 426.908629472134 L -122.102606580149 427.1551770345559 L -122.65510486507506 427.3590044129349 L -123.22189209396788 427.5188549437038 L -123.79947383508544 427.63374309518474 L -124.38428910492833 427.7029605437197 L -124.97273232288717 427.7260805407212 L -125.56117554084601 427.7029605437197 L -126.1459908106889 427.63374309518474 L -126.72357255180646 427.5188549437038 L -127.29035978069928 427.3590044129349 L -127.84285806562534 427.1551770345559 L -128.37766107093375 426.908629472134 L -128.8914715582568 426.62088177337694 L -129.38112171508072 426.2937079985333 L -129.84359268536355 425.9291252827215 L -130.27603318178626 425.5293813996203 L -130.6757770648874 425.0969409031976 L -131.04035978069928 424.6344699329148 L -131.36753355554285 424.14481977609086 L -131.65528125429992 423.6310092887678 L -131.90182881672183 423.0962062834594 L -132.1056561951008 422.5437079985333 L -132.26550672586976 421.9769207696405 L -132.3803948773507 421.39933902852295 L -132.44961232588562 420.8145237586801 L -132.47273232288717 420.2260805407212 L -132.44961232588562 419.6376373227624 L -132.3803948773507 419.0528220529195 L -132.26550672586976 418.47524031180194 L -132.10565619510083 417.90845308290915 L -131.90182881672183 417.35595479798303 L -131.65528125429992 416.82115179267464 L -131.36753355554285 416.3073413053516 L -131.04035978069928 415.8176911485277 L -130.6757770648874 415.35522017824485 L -130.2760331817863 414.92277968182213 L -129.84359268536355 414.523035798721 L -129.38112171508072 414.15845308290915 L -128.8914715582568 413.8312793080655 L -128.37766107093375 413.54353160930845 L -127.84285806562534 413.29698404688656 L -127.29035978069926 413.09315666850756 L -126.72357255180644 412.93330613773867 L -126.14599081068889 412.8184179862577 L -125.56117554084598 412.74920053772274 L -124.97273232288714 412.7260805407212 L -124.3842891049283 412.74920053772274 L -123.79947383508541 412.8184179862577 L -123.22189209396784 412.93330613773867 L -122.65510486507503 413.09315666850756 L -122.10260658014896 413.29698404688656 L -121.56780357484053 413.5435316093085 L -121.05399308751751 413.8312793080656 L -120.56434293069358 414.15845308290915 L -120.10187196041075 414.523035798721 L -119.66943146398802 414.92277968182213 L -119.2696875808869 415.3552201782449 L -118.90510486507502 415.81769114852773 L -118.57793109023144 416.30734130535166 L -118.29018339147437 416.8211517926747 L -118.04363582905249 417.35595479798314 L -117.83980845067349 417.9084530829092 L -117.67995791990458 418.475240311802 L -117.56506976842363 419.05282205291957 L -117.4958523198887 419.6376373227625 Z" fill-opacity="1"/><text fill="none" stroke="rgb(255,255,255)" font-family="Source Sans Pro" font-size="18px" font-style="normal" font-weight="normal" text-decoration="normal" x="-124.97273232288717" y="412.7260805407212" text-anchor="middle" dominant-baseline="text-after-edge" stroke-opacity="0.5" stroke-linejoin="round" stroke-miterlimit="10" stroke-width="2">Ouyang-Chao constant-excitation PI code</text><text fill="rgb(50,108,110)" stroke="none" font-family="Source Sans Pro" font-size="18px" font-style="normal" font-weight="normal" text-decoration="normal" x="-124.97273232288717" y="412.7260805407212" text-anchor="middle" dominant-baseline="text-after-edge" fill-opacity="1">Ouyang-Chao constant-excitation PI code</text><path fill="rgb(50,108,110)" stroke="none" paint-order="stroke fill markers" d=" M 959.0983933714131 419.7913968193544 L 959.0752733744115 420.3798400373133 L 959.0060559258766 420.96465530715614 L 958.8911677743956 421.5422370482737 L 958.7313172436267 422.1090242771665 L 958.5274898652477 422.6615225620926 L 958.2809423028258 423.196325567401 L 957.9931946040688 423.71013605472405 L 957.6660208292252 424.199786211548 L 957.3014381134133 424.6622571818308 L 956.9016942303122 425.0946976782535 L 956.4692537338894 425.4944415613547 L 956.0067827636066 425.8590242771665 L 955.5171326067826 426.1861980520101 L 955.0033221194597 426.4739457507672 L 954.4685191141513 426.7204933131891 L 953.9160208292252 426.9243206915681 L 953.3492336003324 427.084171222337 L 952.7716518592148 427.19905937381793 L 952.1868365893719 427.2682768223529 L 951.5983933714131 427.2913968193544 L 951.0099501534543 427.2682768223529 L 950.4251348836113 427.19905937381793 L 949.8475531424938 427.084171222337 L 949.2807659136009 426.9243206915681 L 948.7282676286749 426.7204933131891 L 948.1934646233665 426.4739457507672 L 947.6796541360435 426.1861980520101 L 947.1900039792196 425.8590242771665 L 946.7275330089367 425.4944415613547 L 946.295092512514 425.0946976782535 L 945.8953486294129 424.6622571818308 L 945.5307659136009 424.199786211548 L 945.2035921387574 423.71013605472405 L 944.9158444400003 423.196325567401 L 944.6692968775784 422.6615225620926 L 944.4654694991995 422.1090242771665 L 944.3056189684305 421.5422370482737 L 944.1907308169496 420.96465530715614 L 944.1215133684146 420.3798400373133 L 944.0983933714131 419.7913968193544 L 944.1215133684146 419.20295360139556 L 944.1907308169496 418.6181383315527 L 944.3056189684305 418.04055659043513 L 944.4654694991995 417.47376936154234 L 944.6692968775784 416.9212710766162 L 944.9158444400003 416.38646807130783 L 945.2035921387574 415.8726575839848 L 945.5307659136009 415.38300742716086 L 945.8953486294129 414.92053645687804 L 946.295092512514 414.4880959604553 L 946.7275330089367 414.0883520773542 L 947.1900039792196 413.72376936154234 L 947.6796541360435 413.3965955866987 L 948.1934646233665 413.10884788794164 L 948.7282676286749 412.86230032551975 L 949.2807659136009 412.65847294714075 L 949.8475531424938 412.49862241637186 L 950.4251348836113 412.3837342648909 L 951.0099501534543 412.31451681635593 L 951.5983933714131 412.2913968193544 L 952.186836589372 412.31451681635593 L 952.7716518592148 412.3837342648909 L 953.3492336003324 412.49862241637186 L 953.9160208292252 412.65847294714075 L 954.4685191141513 412.86230032551975 L 955.0033221194597 413.1088478879417 L 955.5171326067828 413.39659558669877 L 956.0067827636067 413.72376936154234 L 956.4692537338894 414.0883520773542 L 956.9016942303122 414.4880959604553 L 957.3014381134134 414.9205364568781 L 957.6660208292252 415.3830074271609 L 957.9931946040688 415.87265758398485 L 958.2809423028259 416.3864680713079 L 958.5274898652477 416.92127107661634 L 958.7313172436268 417.4737693615424 L 958.8911677743956 418.0405565904352 L 959.0060559258766 418.61813833155276 L 959.0752733744115 419.2029536013957 Z" fill-opacity="1"/><text fill="none" stroke="rgb(255,255,255)" font-family="Source Sans Pro" font-size="32px" font-style="normal" font-weight="bold" text-decoration="normal" x="951.5983933714131" y="412.2913968193544" text-anchor="middle" dominant-baseline="text-after-edge" stroke-opacity="0.5" stroke-linejoin="round" stroke-miterlimit="10" stroke-width="2">Dual-rail quantum code</text><text fill="rgb(50,108,110)" stroke="none" font-family="Source Sans Pro" font-size="32px" font-style="normal" font-weight="bold" text-decoration="normal" x="951.5983933714131" y="412.2913968193544" text-anchor="middle" dominant-baseline="text-after-edge" fill-opacity="1">Dual-rail quantum code</text><path fill="rgb(50,108,110)" stroke="none" paint-order="stroke fill markers" d=" M 706.5792112717256 352.5352972641758 L 706.556091274724 353.1237404821347 L 706.4868738261891 353.70855575197754 L 706.3719856747082 354.2861374930951 L 706.2121351439392 354.8529247219879 L 706.0083077655603 355.405423006914 L 705.7617602031384 355.9402260122224 L 705.4740125043813 356.45403649954545 L 705.1468387295378 356.9436866563694 L 704.7822560137258 357.4061576266522 L 704.3825121306247 357.8385981230749 L 703.950071634202 358.2383420061761 L 703.4876006639191 358.6029247219879 L 702.9979505070952 358.93009849683153 L 702.4841400197722 359.2178461955886 L 701.9493370144638 359.4643937580105 L 701.3968387295378 359.6682211363895 L 700.8300515006449 359.8280716671584 L 700.2524697595273 359.94295981863934 L 699.6676544896844 360.0121772671743 L 699.0792112717256 360.0352972641758 L 698.4907680537668 360.0121772671743 L 697.9059527839239 359.94295981863934 L 697.3283710428063 359.8280716671584 L 696.7615838139135 359.6682211363895 L 696.2090855289874 359.4643937580105 L 695.674282523679 359.2178461955886 L 695.160472036356 358.93009849683153 L 694.6708218795321 358.6029247219879 L 694.2083509092492 358.2383420061761 L 693.7759104128265 357.8385981230749 L 693.3761665297254 357.4061576266522 L 693.0115838139135 356.9436866563694 L 692.6844100390699 356.45403649954545 L 692.3966623403129 355.9402260122224 L 692.150114777891 355.405423006914 L 691.946287399512 354.8529247219879 L 691.7864368687431 354.2861374930951 L 691.6715487172621 353.70855575197754 L 691.6023312687272 353.1237404821347 L 691.5792112717256 352.5352972641758 L 691.6023312687272 351.94685404621697 L 691.6715487172621 351.3620387763741 L 691.7864368687431 350.78445703525654 L 691.946287399512 350.21766980636374 L 692.150114777891 349.6651715214376 L 692.3966623403129 349.13036851612924 L 692.6844100390699 348.6165580288062 L 693.0115838139135 348.12690787198227 L 693.3761665297254 347.66443690169945 L 693.7759104128265 347.23199640527673 L 694.2083509092492 346.8322525221756 L 694.6708218795321 346.46766980636374 L 695.160472036356 346.1404960315201 L 695.674282523679 345.85274833276304 L 696.2090855289874 345.60620077034116 L 696.7615838139135 345.40237339196216 L 697.3283710428063 345.24252286119327 L 697.9059527839239 345.1276347097123 L 698.4907680537668 345.05841726117734 L 699.0792112717256 345.0352972641758 L 699.6676544896845 345.05841726117734 L 700.2524697595273 345.1276347097123 L 700.8300515006449 345.24252286119327 L 701.3968387295378 345.40237339196216 L 701.9493370144638 345.60620077034116 L 702.4841400197722 345.8527483327631 L 702.9979505070953 346.1404960315202 L 703.4876006639192 346.46766980636374 L 703.950071634202 346.8322525221756 L 704.3825121306247 347.23199640527673 L 704.7822560137259 347.6644369016995 L 705.1468387295378 348.1269078719823 L 705.4740125043813 348.61655802880625 L 705.7617602031385 349.1303685161293 L 706.0083077655603 349.66517152143774 L 706.2121351439393 350.2176698063638 L 706.3719856747082 350.7844570352566 L 706.4868738261891 351.36203877637416 L 706.556091274724 351.9468540462171 Z" fill-opacity="1"/><text fill="none" stroke="rgb(255,255,255)" font-family="Source Sans Pro" font-size="18px" font-style="normal" font-weight="normal" text-decoration="normal" x="699.0792112717256" y="345.0352972641758" text-anchor="middle" dominant-baseline="text-after-edge" stroke-opacity="0.5" stroke-linejoin="round" stroke-miterlimit="10" stroke-width="2">One-hot quantum code</text><text fill="rgb(50,108,110)" stroke="none" font-family="Source Sans Pro" font-size="18px" font-style="normal" font-weight="normal" text-decoration="normal" x="699.0792112717256" y="345.0352972641758" text-anchor="middle" dominant-baseline="text-after-edge" fill-opacity="1">One-hot quantum code</text><path fill="rgb(50,108,110)" stroke="none" paint-order="stroke fill markers" d=" M 576.5374060257027 470.92572989006806 L 576.5142860287011 471.5141731080269 L 576.4450685801662 472.0989883778698 L 576.3301804286853 472.67657011898734 L 576.1703298979163 473.24335734788013 L 575.9665025195374 473.79585563280625 L 575.7199549571154 474.33065863811464 L 575.4322072583584 474.8444691254377 L 575.1050334835148 475.3341192822616 L 574.7404507677029 475.79659025254443 L 574.3407068846018 476.22903074896715 L 573.9082663881791 476.6287746320683 L 573.4457954178962 476.99335734788013 L 572.9561452610723 477.32053112272376 L 572.4423347737493 477.60827882148084 L 571.9075317684409 477.8548263839027 L 571.3550334835148 478.0586537622817 L 570.788246254622 478.2185042930506 L 570.2106645135044 478.33339244453157 L 569.6258492436615 478.40260989306654 L 569.0374060257027 478.42572989006806 L 568.4489628077439 478.40260989306654 L 567.864147537901 478.33339244453157 L 567.2865657967834 478.2185042930506 L 566.7197785678906 478.0586537622817 L 566.1672802829645 477.8548263839027 L 565.6324772776561 477.60827882148084 L 565.1186667903331 477.32053112272376 L 564.6290166335092 476.99335734788013 L 564.1665456632263 476.6287746320683 L 563.7341051668036 476.22903074896715 L 563.3343612837025 475.79659025254443 L 562.9697785678906 475.3341192822616 L 562.642604793047 474.8444691254377 L 562.35485709429 474.33065863811464 L 562.108309531868 473.79585563280625 L 561.9044821534891 473.24335734788013 L 561.7446316227201 472.67657011898734 L 561.6297434712392 472.0989883778698 L 561.5605260227043 471.5141731080269 L 561.5374060257027 470.92572989006806 L 561.5605260227043 470.3372866721092 L 561.6297434712392 469.75247140226634 L 561.7446316227201 469.17488966114877 L 561.9044821534891 468.608102432256 L 562.108309531868 468.05560414732986 L 562.35485709429 467.52080114202147 L 562.642604793047 467.0069906546984 L 562.9697785678906 466.5173404978745 L 563.3343612837025 466.0548695275917 L 563.7341051668036 465.62242903116896 L 564.1665456632263 465.22268514806785 L 564.6290166335092 464.858102432256 L 565.1186667903331 464.53092865741235 L 565.6324772776561 464.2431809586553 L 566.1672802829645 463.9966333962334 L 566.7197785678906 463.7928060178544 L 567.2865657967834 463.6329554870855 L 567.864147537901 463.51806733560454 L 568.4489628077439 463.44884988706957 L 569.0374060257027 463.42572989006806 L 569.6258492436616 463.44884988706957 L 570.2106645135044 463.51806733560454 L 570.788246254622 463.6329554870855 L 571.3550334835148 463.7928060178544 L 571.9075317684409 463.9966333962334 L 572.4423347737493 464.24318095865533 L 572.9561452610724 464.5309286574124 L 573.4457954178963 464.858102432256 L 573.9082663881791 465.22268514806785 L 574.3407068846018 465.62242903116896 L 574.740450767703 466.05486952759173 L 575.1050334835148 466.51734049787456 L 575.4322072583584 467.0069906546985 L 575.7199549571155 467.5208011420215 L 575.9665025195374 468.05560414733 L 576.1703298979164 468.60810243225603 L 576.3301804286853 469.1748896611488 L 576.4450685801662 469.7524714022664 L 576.5142860287011 470.3372866721093 Z" fill-opacity="1"/><text fill="none" stroke="rgb(255,255,255)" font-family="Source Sans Pro" font-size="18px" font-style="normal" font-weight="normal" text-decoration="normal" x="569.0374060257027" y="463.42572989006806" text-anchor="middle" dominant-baseline="text-after-edge" stroke-opacity="0.5" stroke-linejoin="round" stroke-miterlimit="10" stroke-width="2">Two-mode binomial code</text><text fill="rgb(50,108,110)" stroke="none" font-family="Source Sans Pro" font-size="18px" font-style="normal" font-weight="normal" text-decoration="normal" x="569.0374060257027" y="463.42572989006806" text-anchor="middle" dominant-baseline="text-after-edge" fill-opacity="1">Two-mode binomial code</text><path fill="rgb(50,108,110)" stroke="none" paint-order="stroke fill markers" d=" M 430.3275493835909 291.99716167365835 L 430.3044293865894 292.5856048916172 L 430.2352119380544 293.1704201614601 L 430.12032378657346 293.74800190257764 L 429.9604732558046 294.31478913147043 L 429.75664587742557 294.86728741639655 L 429.5100983150037 295.40209042170494 L 429.2223506162466 295.915900909028 L 428.895176841403 296.4055510658519 L 428.53059412559116 296.86802203613473 L 428.13085024249 297.30046253255745 L 427.6984097460673 297.7002064156586 L 427.23593877578446 298.06478913147043 L 426.74628861896053 298.39196290631406 L 426.2324781316375 298.67971060507114 L 425.6976751263291 298.926258167493 L 425.145176841403 299.130085545872 L 424.5783896125102 299.2899360766409 L 424.0008078713926 299.40482422812187 L 423.41599260154976 299.47404167665684 L 422.8275493835909 299.49716167365835 L 422.23910616563205 299.47404167665684 L 421.6542908957892 299.40482422812187 L 421.0767091546716 299.2899360766409 L 420.5099219257788 299.130085545872 L 419.9574236408527 298.926258167493 L 419.4226206355443 298.67971060507114 L 418.9088101482213 298.39196290631406 L 418.41915999139735 298.06478913147043 L 417.9566890211145 297.7002064156586 L 417.5242485246918 297.30046253255745 L 417.12450464159065 296.86802203613473 L 416.7599219257788 296.4055510658519 L 416.4327481509352 295.915900909028 L 416.1450004521781 295.40209042170494 L 415.89845288975624 294.86728741639655 L 415.69462551137724 294.31478913147043 L 415.53477498060835 293.74800190257764 L 415.4198868291274 293.1704201614601 L 415.3506693805924 292.5856048916172 L 415.3275493835909 291.99716167365835 L 415.3506693805924 291.4087184556995 L 415.4198868291274 290.82390318585664 L 415.53477498060835 290.24632144473907 L 415.69462551137724 289.6795342158463 L 415.89845288975624 289.12703593092016 L 416.1450004521781 288.59223292561177 L 416.4327481509352 288.0784224382887 L 416.7599219257788 287.5887722814648 L 417.12450464159065 287.126301311182 L 417.5242485246918 286.69386081475926 L 417.9566890211145 286.29411693165815 L 418.41915999139735 285.9295342158463 L 418.9088101482213 285.60236044100265 L 419.4226206355443 285.3146127422456 L 419.95742364085277 285.0680651798237 L 420.5099219257788 284.8642378014447 L 421.0767091546716 284.7043872706758 L 421.6542908957892 284.58949911919484 L 422.2391061656321 284.52028167065987 L 422.8275493835909 284.49716167365835 L 423.41599260154976 284.52028167065987 L 424.0008078713927 284.58949911919484 L 424.57838961251025 284.7043872706758 L 425.14517684140304 284.8642378014447 L 425.6976751263291 285.06806517982375 L 426.23247813163755 285.31461274224563 L 426.7462886189606 285.6023604410027 L 427.2359387757845 285.9295342158463 L 427.69840974606734 286.29411693165815 L 428.13085024249006 286.69386081475926 L 428.53059412559116 287.12630131118203 L 428.89517684140304 287.58877228146486 L 429.2223506162466 288.0784224382888 L 429.5100983150037 288.5922329256118 L 429.75664587742557 289.1270359309203 L 429.9604732558046 289.67953421584633 L 430.1203237865735 290.2463214447391 L 430.2352119380545 290.8239031858567 L 430.3044293865894 291.4087184556996 Z" fill-opacity="1"/><text fill="none" stroke="rgb(255,255,255)" font-family="Source Sans Pro" font-size="18px" font-style="normal" font-weight="normal" text-decoration="normal" x="422.8275493835909" y="284.49716167365835" text-anchor="middle" dominant-baseline="text-after-edge" stroke-opacity="0.5" stroke-linejoin="round" stroke-miterlimit="10" stroke-width="2">Very small logical qubit (VSLQ) code</text><text fill="rgb(50,108,110)" stroke="none" font-family="Source Sans Pro" font-size="18px" font-style="normal" font-weight="normal" text-decoration="normal" x="422.8275493835909" y="284.49716167365835" text-anchor="middle" dominant-baseline="text-after-edge" fill-opacity="1">Very small logical qubit (VSLQ) code</text><path fill="rgb(50,108,110)" stroke="none" paint-order="stroke fill markers" d=" M -273.5015597354174 489.8878513617819 L -273.5246797324189 490.47629457974074 L -273.5938971809539 491.0611098495836 L -273.70878533243484 491.63869159070117 L -273.86863586320374 492.20547881959396 L -274.07246324158274 492.7579771045201 L -274.3190108040046 493.29278010982847 L -274.6067585027617 493.8065905971515 L -274.9339322776053 494.29624075397544 L -275.29851499341714 494.75871172425826 L -275.6982588765183 495.191152220681 L -276.130699372941 495.59089610378214 L -276.59317034322385 495.95547881959396 L -277.0828205000478 496.2826525944376 L -277.5966309873708 496.57040029319467 L -278.1314339926792 496.81694785561655 L -278.6839322776053 497.02077523399555 L -279.2507195064981 497.18062576476444 L -279.8283012476157 497.2955139162454 L -280.41311651745855 497.36473136478037 L -281.0015597354174 497.3878513617819 L -281.59000295337626 497.36473136478037 L -282.1748182232191 497.2955139162454 L -282.7523999643367 497.18062576476444 L -283.3191871932295 497.02077523399555 L -283.8716854781556 496.81694785561655 L -284.406488483464 496.57040029319467 L -284.92029897078703 496.2826525944376 L -285.40994912761096 495.95547881959396 L -285.8724200978938 495.59089610378214 L -286.3048605943165 495.191152220681 L -286.70460447741766 494.75871172425826 L -287.0691871932295 494.29624075397544 L -287.3963609680731 493.8065905971515 L -287.6841086668302 493.29278010982847 L -287.93065622925207 492.7579771045201 L -288.13448360763107 492.20547881959396 L -288.29433413839996 491.63869159070117 L -288.4092222898809 491.0611098495836 L -288.4784397384159 490.47629457974074 L -288.5015597354174 489.8878513617819 L -288.4784397384159 489.29940814382303 L -288.4092222898809 488.71459287398017 L -288.29433413839996 488.1370111328626 L -288.13448360763107 487.5702239039698 L -287.93065622925207 487.0177256190437 L -287.6841086668302 486.4829226137353 L -287.3963609680731 485.96911212641226 L -287.0691871932295 485.47946196958833 L -286.70460447741766 485.0169909993055 L -286.3048605943165 484.5845505028828 L -285.8724200978938 484.1848066197817 L -285.40994912761096 483.8202239039698 L -284.92029897078703 483.4930501291262 L -284.406488483464 483.2053024303691 L -283.87168547815554 482.9587548679472 L -283.3191871932295 482.7549274895682 L -282.7523999643367 482.5950769587993 L -282.1748182232191 482.48018880731837 L -281.5900029533762 482.4109713587834 L -281.0015597354174 482.3878513617819 L -280.41311651745855 482.4109713587834 L -279.8283012476156 482.48018880731837 L -279.25071950649806 482.5950769587993 L -278.68393227760527 482.7549274895682 L -278.1314339926792 482.9587548679473 L -277.59663098737076 483.20530243036916 L -277.0828205000477 483.49305012912623 L -276.5931703432238 483.8202239039698 L -276.13069937294097 484.1848066197817 L -275.69825887651825 484.5845505028828 L -275.29851499341714 485.01699099930556 L -274.93393227760527 485.4794619695884 L -274.6067585027617 485.9691121264123 L -274.3190108040046 486.48292261373535 L -274.07246324158274 487.0177256190438 L -273.86863586320374 487.57022390396986 L -273.7087853324348 488.13701113286265 L -273.59389718095383 488.7145928739802 L -273.5246797324189 489.29940814382314 Z" fill-opacity="1"/><text fill="none" stroke="rgb(255,255,255)" font-family="Source Sans Pro" font-size="18px" font-style="normal" font-weight="normal" text-decoration="normal" x="-281.0015597354174" y="482.3878513617819" text-anchor="middle" dominant-baseline="text-after-edge" stroke-opacity="0.5" stroke-linejoin="round" stroke-miterlimit="10" stroke-width="2">Wasilewski-Banaszek code</text><text fill="rgb(50,108,110)" stroke="none" font-family="Source Sans Pro" font-size="18px" font-style="normal" font-weight="normal" text-decoration="normal" x="-281.0015597354174" y="482.3878513617819" text-anchor="middle" dominant-baseline="text-after-edge" fill-opacity="1">Wasilewski-Banaszek code</text><path fill="rgb(50,108,110)" stroke="none" paint-order="stroke fill markers" d=" M 27.422614921465055 364.83276587455913 L 27.407201590130693 365.2250613531983 L 27.361056624440742 365.6149381997603 L 27.284464523453437 365.99999269383864 L 27.177897502940823 366.3778508464339 L 27.04201258402149 366.7461830363846 L 26.877647542406894 367.10271837325683 L 26.685815743235516 367.4452586981389 L 26.46769989333979 367.7716921360215 L 26.22464474946521 368.08000611621003 L 25.958148827397793 368.36829978049184 L 25.669855163115972 368.6347957025593 L 25.36154118292742 368.8778508464339 L 25.035107745044797 369.0959666963296 L 24.69256742016279 369.28779849550097 L 24.336032083290505 369.45216353711555 L 23.96769989333979 369.58804845603487 L 23.589841740744582 369.69461547654754 L 23.20478724666621 369.7712075775348 L 22.81491040010428 369.8173525432248 L 22.422614921465055 369.83276587455913 L 22.03031944282583 369.8173525432248 L 21.640442596263902 369.7712075775348 L 21.255388102185528 369.69461547654754 L 20.87752994959032 369.5880484560349 L 20.509197759639605 369.45216353711555 L 20.15266242276732 369.28779849550097 L 19.810122097885312 369.0959666963296 L 19.48368866000269 368.8778508464339 L 19.175374679814137 368.6347957025593 L 18.887081015532317 368.36829978049184 L 18.6205850934649 368.08000611621003 L 18.37752994959032 367.7716921360215 L 18.159414099694594 367.4452586981389 L 17.967582300523215 367.1027183732569 L 17.80321725890862 366.7461830363846 L 17.667332339989287 366.3778508464339 L 17.560765319476673 365.99999269383864 L 17.484173218489367 365.6149381997603 L 17.438028252799416 365.2250613531983 L 17.422614921465055 364.83276587455913 L 17.438028252799416 364.44047039591993 L 17.484173218489367 364.050593549358 L 17.560765319476673 363.6655390552796 L 17.667332339989287 363.2876809026844 L 17.80321725890862 362.91934871273367 L 17.967582300523215 362.5628133758614 L 18.159414099694594 362.22027305097936 L 18.37752994959032 361.89383961309676 L 18.6205850934649 361.58552563290823 L 18.887081015532317 361.2972319686264 L 19.175374679814134 361.03073604655896 L 19.483688660002688 360.7876809026844 L 19.810122097885312 360.5695650527887 L 20.152662422767325 360.3777332536173 L 20.509197759639612 360.2133682120027 L 20.877529949590325 360.07748329308333 L 21.255388102185538 359.9709162725707 L 21.640442596263913 359.89432417158343 L 22.030319442825846 359.8481792058935 L 22.422614921465073 359.83276587455913 L 22.8149104001043 359.8481792058935 L 23.20478724666623 359.89432417158343 L 23.589841740744603 359.9709162725708 L 23.967699893339816 360.0774832930834 L 24.33603208329053 360.2133682120027 L 24.692567420162817 360.3777332536173 L 25.035107745044826 360.5695650527887 L 25.361541182927446 360.78768090268443 L 25.669855163116 361.030736046559 L 25.95814882739782 361.2972319686264 L 26.224644749465234 361.58552563290823 L 26.46769989333982 361.8938396130968 L 26.68581574323554 362.2202730509794 L 26.877647542406915 362.5628133758614 L 27.042012584021506 362.9193487127337 L 27.177897502940837 363.28768090268443 L 27.28446452345345 363.6655390552797 L 27.361056624440753 364.05059354935804 L 27.407201590130697 364.44047039592 Z" fill-opacity="0.3"/><text fill="none" stroke="rgb(255,255,255)" font-family="Source Sans Pro" font-size="32px" font-style="normal" font-weight="bold" text-decoration="normal" x="22.422614921465055" y="359.83276587455913" text-anchor="middle" dominant-baseline="text-after-edge" stroke-opacity="0.15" stroke-linejoin="round" stroke-miterlimit="10" stroke-width="2">Fock-state bosonic code</text><text fill="rgb(50,108,110)" stroke="none" font-family="Source Sans Pro" font-size="32px" font-style="normal" font-weight="bold" text-decoration="normal" x="22.422614921465055" y="359.83276587455913" text-anchor="middle" dominant-baseline="text-after-edge" fill-opacity="0.3">Fock-state bosonic code</text><path fill="rgb(50,108,110)" stroke="none" paint-order="stroke fill markers" d=" M -305.6786577699303 371.1741071978807 L -305.7017777669318 371.76255041583954 L -305.77099521546677 372.3473656856824 L -305.8858833669477 372.9249474268 L -306.0457338977166 373.49173465569277 L -306.2495612760956 374.0442329406189 L -306.4961088385175 374.5790359459273 L -306.7838565372746 375.0928464332503 L -307.1110303121182 375.58249659007424 L -307.47561302793 376.04496756035707 L -307.8753569110312 376.4774080567798 L -308.3077974074539 376.87715193988095 L -308.7702683777367 377.24173465569277 L -309.25991853456065 377.5689084305364 L -309.7737290218837 377.85665612929347 L -310.3085320271921 378.10320369171535 L -310.8610303121182 378.30703107009435 L -311.427817541011 378.46688160086325 L -312.00539928212856 378.5817697523442 L -312.5902145519714 378.6509872008792 L -313.1786577699303 378.6741071978807 L -313.76710098788914 378.6509872008792 L -314.351916257732 378.5817697523442 L -314.92949799884957 378.46688160086325 L -315.49628522774236 378.30703107009435 L -316.0487835126685 378.10320369171535 L -316.58358651797687 377.85665612929347 L -317.0973970052999 377.5689084305364 L -317.58704716212384 377.24173465569277 L -318.04951813240666 376.87715193988095 L -318.4819586288294 376.4774080567798 L -318.88170251193054 376.04496756035707 L -319.24628522774236 375.58249659007424 L -319.573459002586 375.0928464332503 L -319.86120670134306 374.5790359459273 L -320.10775426376495 374.0442329406189 L -320.31158164214395 373.49173465569277 L -320.47143217291284 372.9249474268 L -320.5863203243938 372.3473656856824 L -320.65553777292877 371.76255041583954 L -320.6786577699303 371.1741071978807 L -320.65553777292877 370.58566397992183 L -320.5863203243938 370.00084871007897 L -320.47143217291284 369.4232669689614 L -320.31158164214395 368.8564797400686 L -320.10775426376495 368.3039814551425 L -319.86120670134306 367.7691784498341 L -319.573459002586 367.25536796251106 L -319.24628522774236 366.76571780568713 L -318.88170251193054 366.3032468354043 L -318.4819586288294 365.8708063389816 L -318.04951813240666 365.4710624558805 L -317.58704716212384 365.1064797400686 L -317.0973970052999 364.779305965225 L -316.58358651797687 364.4915582664679 L -316.0487835126684 364.245010704046 L -315.49628522774236 364.041183325667 L -314.92949799884957 363.8813327948981 L -314.351916257732 363.7664446434172 L -313.7671009878891 363.6972271948822 L -313.1786577699303 363.6741071978807 L -312.5902145519714 363.6972271948822 L -312.0053992821285 363.7664446434172 L -311.42781754101094 363.8813327948981 L -310.86103031211815 364.041183325667 L -310.3085320271921 364.2450107040461 L -309.77372902188364 364.49155826646796 L -309.2599185345606 364.77930596522503 L -308.77026837773667 365.1064797400686 L -308.30779740745385 365.4710624558805 L -307.87535691103113 365.8708063389816 L -307.47561302793 366.30324683540437 L -307.11103031211815 366.7657178056872 L -306.7838565372746 367.2553679625111 L -306.4961088385175 367.76917844983416 L -306.2495612760956 368.3039814551426 L -306.0457338977166 368.85647974006866 L -305.88588336694767 369.42326696896146 L -305.7709952154667 370.000848710079 L -305.7017777669318 370.58566397992195 Z" fill-opacity="1"/><text fill="none" stroke="rgb(255,255,255)" font-family="Source Sans Pro" font-size="18px" font-style="normal" font-weight="normal" text-decoration="normal" x="-313.1786577699303" y="363.6741071978807" text-anchor="middle" dominant-baseline="text-after-edge" stroke-opacity="0.5" stroke-linejoin="round" stroke-miterlimit="10" stroke-width="2">Matrix-model code</text><text fill="rgb(50,108,110)" stroke="none" font-family="Source Sans Pro" font-size="18px" font-style="normal" font-weight="normal" text-decoration="normal" x="-313.1786577699303" y="363.6741071978807" text-anchor="middle" dominant-baseline="text-after-edge" fill-opacity="1">Matrix-model code</text><path fill="rgb(50,108,110)" stroke="none" paint-order="stroke fill markers" d=" M -238.80605181355335 292.53972114667226 L -238.8291718105549 293.1281643646311 L -238.8983892590898 293.712979634474 L -239.01327741057077 294.29056137559155 L -239.17312794133971 294.85734860448434 L -239.3769553197187 295.40984688941046 L -239.6235028821406 295.94464989471885 L -239.91125058089767 296.4584603820419 L -240.23842435574124 296.9481105388658 L -240.60300707155312 297.41058150914864 L -241.00275095465423 297.84302200557136 L -241.43519145107697 298.2427658886725 L -241.8976624213598 298.60734860448434 L -242.38731257818372 298.934522379328 L -242.90112306550674 299.22227007808505 L -243.43592607081519 299.4688176405069 L -243.98842435574124 299.67264501888593 L -244.55521158463407 299.8324955496548 L -245.1327933257516 299.9473837011358 L -245.71760859559453 300.01660114967075 L -246.30605181355335 300.03972114667226 L -246.89449503151218 300.01660114967075 L -247.47931030135507 299.9473837011358 L -248.05689204247264 299.8324955496548 L -248.62367927136546 299.67264501888593 L -249.17617755629152 299.4688176405069 L -249.71098056159994 299.22227007808505 L -250.22479104892298 298.934522379328 L -250.7144412057469 298.60734860448434 L -251.17691217602973 298.2427658886725 L -251.60935267245245 297.84302200557136 L -252.00909655555358 297.41058150914864 L -252.37367927136546 296.9481105388658 L -252.70085304620903 296.4584603820419 L -252.9886007449661 295.94464989471885 L -253.23514830738802 295.40984688941046 L -253.438975685767 294.85734860448434 L -253.59882621653594 294.29056137559155 L -253.7137143680169 293.712979634474 L -253.7829318165518 293.1281643646311 L -253.80605181355335 292.53972114667226 L -253.7829318165518 291.9512779287134 L -253.7137143680169 291.36646265887055 L -253.59882621653594 290.788880917753 L -253.438975685767 290.2220936888602 L -253.23514830738802 289.66959540393407 L -252.9886007449661 289.1347923986257 L -252.70085304620903 288.62098191130264 L -252.37367927136546 288.1313317544787 L -252.00909655555358 287.6688607841959 L -251.60935267245247 287.23642028777317 L -251.17691217602973 286.83667640467206 L -250.7144412057469 286.4720936888602 L -250.22479104892298 286.14491991401655 L -249.71098056159994 285.8571722152595 L -249.17617755629152 285.6106246528376 L -248.62367927136546 285.4067972744586 L -248.05689204247264 285.2469467436897 L -247.47931030135507 285.13205859220875 L -246.89449503151218 285.0628411436738 L -246.30605181355332 285.03972114667226 L -245.7176085955945 285.0628411436738 L -245.13279332575158 285.13205859220875 L -244.55521158463404 285.2469467436897 L -243.98842435574122 285.4067972744586 L -243.43592607081513 285.6106246528376 L -242.9011230655067 285.85717221525954 L -242.3873125781837 286.1449199140166 L -241.89766242135977 286.4720936888602 L -241.43519145107695 286.83667640467206 L -241.0027509546542 287.23642028777317 L -240.6030070715531 287.66886078419594 L -240.23842435574122 288.13133175447877 L -239.91125058089762 288.6209819113027 L -239.62350288214057 289.13479239862573 L -239.37695531971866 289.6695954039342 L -239.1731279413397 290.22209368886024 L -239.01327741057077 290.78888091775303 L -238.8983892590898 291.3664626588706 L -238.8291718105549 291.9512779287135 Z" fill-opacity="1"/><text fill="none" stroke="rgb(255,255,255)" font-family="Source Sans Pro" font-size="18px" font-style="normal" font-weight="normal" text-decoration="normal" x="-246.30605181355335" y="285.03972114667226" text-anchor="middle" dominant-baseline="text-after-edge" stroke-opacity="0.5" stroke-linejoin="round" stroke-miterlimit="10" stroke-width="2">Pair-cat code</text><text fill="rgb(50,108,110)" stroke="none" font-family="Source Sans Pro" font-size="18px" font-style="normal" font-weight="normal" text-decoration="normal" x="-246.30605181355335" y="285.03972114667226" text-anchor="middle" dominant-baseline="text-after-edge" fill-opacity="1">Pair-cat code</text><path fill="rgb(50,108,110)" stroke="none" paint-order="stroke fill markers" d=" M 305.0762101200155 548.2895797636165 L 305.053090123014 548.8780229815753 L 304.983872674479 549.4628382514182 L 304.86898452299806 550.0404199925358 L 304.70913399222917 550.6072072214287 L 304.50530661385017 551.1597055063547 L 304.2587590514283 551.6945085116631 L 303.9710113526712 552.2083189989861 L 303.6438375778276 552.69796915581 L 303.27925486201576 553.1604401260929 L 302.8795109789146 553.5928806225156 L 302.4470704824919 553.9926245056167 L 301.98459951220906 554.3572072214287 L 301.49494935538513 554.6843809962722 L 300.9811388680621 554.9721286950293 L 300.4463358627537 555.2186762574512 L 299.8938375778276 555.4225036358301 L 299.3270503489348 555.5823541665991 L 298.7494686078172 555.69724231808 L 298.16465333797436 555.766459766615 L 297.5762101200155 555.7895797636165 L 296.98776690205665 555.766459766615 L 296.4029516322138 555.69724231808 L 295.8253698910962 555.5823541665991 L 295.2585826622034 555.4225036358301 L 294.7060843772773 555.2186762574512 L 294.1712813719689 554.9721286950293 L 293.6574708846459 554.6843809962722 L 293.16782072782195 554.3572072214287 L 292.7053497575391 553.9926245056167 L 292.2729092611164 553.5928806225156 L 291.87316537801524 553.1604401260929 L 291.5085826622034 552.69796915581 L 291.1814088873598 552.2083189989861 L 290.8936611886027 551.6945085116631 L 290.64711362618084 551.1597055063547 L 290.44328624780184 550.6072072214287 L 290.28343571703294 550.0404199925358 L 290.168547565552 549.4628382514182 L 290.099330117017 548.8780229815753 L 290.0762101200155 548.2895797636165 L 290.099330117017 547.7011365456577 L 290.168547565552 547.1163212758148 L 290.28343571703294 546.5387395346972 L 290.44328624780184 545.9719523058044 L 290.64711362618084 545.4194540208783 L 290.8936611886027 544.88465101557 L 291.1814088873598 544.370840528247 L 291.5085826622034 543.881190371423 L 291.87316537801524 543.4187194011402 L 292.2729092611164 542.9862789047174 L 292.7053497575391 542.5865350216163 L 293.16782072782195 542.2219523058044 L 293.6574708846459 541.8947785309608 L 294.1712813719689 541.6070308322038 L 294.70608437727736 541.3604832697819 L 295.2585826622034 541.1566558914029 L 295.8253698910962 540.996805360634 L 296.4029516322138 540.881917209153 L 296.9877669020567 540.8126997606181 L 297.5762101200155 540.7895797636165 L 298.16465333797436 540.8126997606181 L 298.7494686078173 540.881917209153 L 299.32705034893485 540.996805360634 L 299.89383757782764 541.1566558914029 L 300.4463358627537 541.3604832697819 L 300.98113886806215 541.6070308322038 L 301.4949493553852 541.8947785309608 L 301.9845995122091 542.2219523058045 L 302.44707048249194 542.5865350216163 L 302.87951097891465 542.9862789047174 L 303.27925486201576 543.4187194011402 L 303.64383757782764 543.881190371423 L 303.9710113526712 544.370840528247 L 304.2587590514283 544.88465101557 L 304.50530661385017 545.4194540208784 L 304.70913399222917 545.9719523058045 L 304.8689845229981 546.5387395346974 L 304.9838726744791 547.1163212758149 L 305.053090123014 547.7011365456577 Z" fill-opacity="1"/><text fill="none" stroke="rgb(255,255,255)" font-family="Source Sans Pro" font-size="32px" font-style="normal" font-weight="bold" text-decoration="normal" x="297.5762101200155" y="540.7895797636165" text-anchor="middle" dominant-baseline="text-after-edge" stroke-opacity="0.5" stroke-linejoin="round" stroke-miterlimit="10" stroke-width="2">Binomial code</text><text fill="rgb(50,108,110)" stroke="none" font-family="Source Sans Pro" font-size="32px" font-style="normal" font-weight="bold" text-decoration="normal" x="297.5762101200155" y="540.7895797636165" text-anchor="middle" dominant-baseline="text-after-edge" fill-opacity="1">Binomial code</text><path fill="rgb(50,108,110)" stroke="none" paint-order="stroke fill markers" d=" M 43.3599652151669 481.258772828043 L 43.336845218165365 481.84721604600185 L 43.26762776963044 482.4320313158447 L 43.152739618149475 483.0096130569623 L 42.992889087380554 483.5764002858551 L 42.78906170900155 484.1288985707812 L 42.54251414657966 484.6637015760896 L 42.25476644782259 485.1775120634126 L 41.92759267297901 485.66716222023655 L 41.56300995716713 486.12963319051937 L 41.16326607406601 486.5620736869421 L 40.73082557764328 486.96181757004325 L 40.26835460736045 487.3264002858551 L 39.778704450536516 487.6535740606987 L 39.2648939632135 487.9413217594558 L 38.73009095790508 488.18786932187766 L 38.17759267297901 488.39169670025666 L 37.610805444086196 488.55154723102555 L 37.033223702968634 488.6664353825065 L 36.44840843312574 488.7356528310415 L 35.8599652151669 488.758772828043 L 35.27152199720807 488.7356528310415 L 34.68670672736517 488.6664353825065 L 34.109124986247615 488.55154723102555 L 33.542337757354794 488.39169670025666 L 32.98983947242873 488.18786932187766 L 32.4550364671203 487.9413217594558 L 31.941225979797288 487.6535740606987 L 31.451575822973354 487.3264002858551 L 30.989104852690524 486.96181757004325 L 30.556664356267795 486.5620736869421 L 30.15692047316667 486.12963319051937 L 29.792337757354797 485.66716222023655 L 29.46516398251121 485.1775120634126 L 29.177416283754145 484.6637015760896 L 28.930868721332253 484.1288985707812 L 28.72704134295325 483.5764002858551 L 28.56719081218433 483.0096130569623 L 28.45230266070337 482.4320313158447 L 28.383085212168442 481.84721604600185 L 28.359965215166902 481.258772828043 L 28.383085212168442 480.67032961008414 L 28.452302660703367 480.0855143402413 L 28.56719081218433 479.5079325991237 L 28.72704134295325 478.9411453702309 L 28.93086872133225 478.3886470853048 L 29.17741628375414 477.8538440799964 L 29.46516398251121 477.34003359267336 L 29.792337757354794 476.85038343584944 L 30.156920473166668 476.3879124655666 L 30.556664356267795 475.9554719691439 L 30.98910485269052 475.5557280860428 L 31.451575822973354 475.1911453702309 L 31.941225979797288 474.8639715953873 L 32.45503646712031 474.5762238966302 L 32.989839472428734 474.32967633420833 L 33.54233775735481 474.1258489558293 L 34.10912498624763 473.96599842506043 L 34.68670672736519 473.8511102735795 L 35.27152199720808 473.7818928250445 L 35.85996521516693 473.758772828043 L 36.44840843312577 473.7818928250445 L 37.03322370296866 473.8511102735795 L 37.610805444086225 473.96599842506043 L 38.177592672979046 474.1258489558293 L 38.73009095790511 474.32967633420833 L 39.264893963213545 474.57622389663027 L 39.77870445053656 474.86397159538734 L 40.26835460736049 475.1911453702309 L 40.73082557764332 475.5557280860428 L 41.16326607406605 475.9554719691439 L 41.563009957167175 476.38791246556667 L 41.927592672979046 476.8503834358495 L 42.25476644782263 477.3400335926734 L 42.54251414657969 477.85384407999646 L 42.78906170900158 478.3886470853049 L 42.992889087380576 478.94114537023097 L 43.152739618149496 479.50793259912376 L 43.26762776963045 480.08551434024133 L 43.336845218165365 480.67032961008425 Z" fill-opacity="1"/><text fill="none" stroke="rgb(255,255,255)" font-family="Source Sans Pro" font-size="18px" font-style="normal" font-weight="normal" text-decoration="normal" x="35.8599652151669" y="473.758772828043" text-anchor="middle" dominant-baseline="text-after-edge" stroke-opacity="0.5" stroke-linejoin="round" stroke-miterlimit="10" stroke-width="2">Bosonic rotation code</text><text fill="rgb(50,108,110)" stroke="none" font-family="Source Sans Pro" font-size="18px" font-style="normal" font-weight="normal" text-decoration="normal" x="35.8599652151669" y="473.758772828043" text-anchor="middle" dominant-baseline="text-after-edge" fill-opacity="1">Bosonic rotation code</text><path fill="rgb(50,108,110)" stroke="none" paint-order="stroke fill markers" d=" M 189.31451890607156 430.182183526076 L 189.29139890907 430.77062674403487 L 189.2221814605351 431.35544201387773 L 189.10729330905414 431.9330237549953 L 188.9474427782852 432.4998109838881 L 188.74361539990622 433.0523092688142 L 188.4970678374843 433.5871122741226 L 188.20932013872724 434.10092276144564 L 187.88214636388366 434.5905729182696 L 187.51756364807179 435.0530438885524 L 187.11781976497065 435.4854843849751 L 186.68537926854793 435.8852282680763 L 186.2229082982651 436.2498109838881 L 185.73325814144118 436.5769847587317 L 185.21944765411817 436.8647324574888 L 184.68464464880972 437.1112800199107 L 184.13214636388366 437.3151073982897 L 183.56535913499084 437.4749579290586 L 182.98777739387327 437.58984608053953 L 182.40296212403038 437.6590635290745 L 181.81451890607156 437.682183526076 L 181.22607568811273 437.6590635290745 L 180.64126041826984 437.58984608053953 L 180.06367867715227 437.4749579290586 L 179.49689144825945 437.3151073982897 L 178.9443931633334 437.1112800199107 L 178.40959015802497 436.8647324574888 L 177.89577967070193 436.5769847587317 L 177.406129513878 436.2498109838881 L 176.94365854359518 435.8852282680763 L 176.51121804717246 435.4854843849751 L 176.11147416407132 435.0530438885524 L 175.74689144825945 434.5905729182696 L 175.41971767341587 434.10092276144564 L 175.1319699746588 433.5871122741226 L 174.8854224122369 433.0523092688142 L 174.68159503385792 432.4998109838881 L 174.52174450308897 431.9330237549953 L 174.406856351608 431.35544201387773 L 174.3376389030731 430.77062674403487 L 174.31451890607156 430.182183526076 L 174.3376389030731 429.59374030811716 L 174.406856351608 429.0089250382743 L 174.52174450308897 428.43134329715673 L 174.6815950338579 427.86455606826394 L 174.8854224122369 427.3120577833378 L 175.1319699746588 426.77725477802943 L 175.41971767341587 426.2634442907064 L 175.74689144825945 425.77379413388246 L 176.11147416407132 425.31132316359964 L 176.51121804717243 424.8788826671769 L 176.94365854359518 424.4791387840758 L 177.406129513878 424.11455606826394 L 177.89577967070193 423.7873822934203 L 178.40959015802497 423.49963459466323 L 178.9443931633334 423.25308703224135 L 179.49689144825945 423.04925965386235 L 180.06367867715227 422.88940912309346 L 180.64126041826984 422.7745209716125 L 181.22607568811273 422.70530352307753 L 181.81451890607158 422.682183526076 L 182.4029621240304 422.70530352307753 L 182.98777739387333 422.7745209716125 L 183.56535913499087 422.88940912309346 L 184.1321463638837 423.04925965386235 L 184.68464464880978 423.2530870322414 L 185.2194476541182 423.4996345946633 L 185.7332581414412 423.78738229342036 L 186.22290829826514 424.11455606826394 L 186.68537926854796 424.4791387840758 L 187.1178197649707 424.8788826671769 L 187.5175636480718 425.3113231635997 L 187.8821463638837 425.7737941338825 L 188.2093201387273 426.26344429070645 L 188.49706783748434 426.7772547780295 L 188.74361539990625 427.31205778333793 L 188.94744277828522 427.864556068264 L 189.10729330905414 428.4313432971568 L 189.2221814605351 429.00892503827436 L 189.29139890907 429.5937403081173 Z" fill-opacity="1"/><text fill="none" stroke="rgb(255,255,255)" font-family="Source Sans Pro" font-size="18px" font-style="normal" font-weight="normal" text-decoration="normal" x="181.81451890607156" y="422.682183526076" text-anchor="middle" dominant-baseline="text-after-edge" stroke-opacity="0.5" stroke-linejoin="round" stroke-miterlimit="10" stroke-width="2">Chebyshev code</text><text fill="rgb(50,108,110)" stroke="none" font-family="Source Sans Pro" font-size="18px" font-style="normal" font-weight="normal" text-decoration="normal" x="181.81451890607156" y="422.682183526076" text-anchor="middle" dominant-baseline="text-after-edge" fill-opacity="1">Chebyshev code</text><path fill="rgb(50,108,110)" stroke="none" paint-order="stroke fill markers" d=" M -110.91957632739974 554.7799175609778 L -110.94269632440128 555.3683607789366 L -111.01191377293621 555.9531760487795 L -111.12680192441717 556.530757789897 L -111.28665245518609 557.0975450187899 L -111.49047983356509 557.650043303716 L -111.73702739598698 558.1848463090244 L -112.02477509474404 558.6986567963473 L -112.35194886958763 559.1883069531713 L -112.71653158539951 559.6507779234541 L -113.11627546850063 560.0832184198769 L -113.54871596492336 560.482962302978 L -114.01118693520618 560.8475450187899 L -114.50083709203012 561.1747187936335 L -115.01464757935314 561.4624664923905 L -115.54945058466157 561.7090140548124 L -116.10194886958763 561.9128414331914 L -116.66873609848045 562.0726919639603 L -117.246317839598 562.1875801154413 L -117.8311331094409 562.2567975639762 L -118.41957632739974 562.2799175609778 L -119.00801954535858 562.2567975639762 L -119.59283481520147 562.1875801154413 L -120.17041655631903 562.0726919639603 L -120.73720378521185 561.9128414331914 L -121.2897020701379 561.7090140548124 L -121.82450507544634 561.4624664923905 L -122.33831556276935 561.1747187936335 L -122.82796571959328 560.8475450187899 L -123.29043668987612 560.482962302978 L -123.72287718629885 560.0832184198769 L -124.12262106939997 559.6507779234541 L -124.48720378521185 559.1883069531713 L -124.81437756005543 558.6986567963473 L -125.10212525881249 558.1848463090244 L -125.34867282123439 557.650043303716 L -125.55250019961339 557.0975450187899 L -125.71235073038231 556.530757789897 L -125.82723888186327 555.9531760487795 L -125.8964563303982 555.3683607789366 L -125.91957632739974 554.7799175609778 L -125.8964563303982 554.191474343019 L -125.82723888186327 553.606659073176 L -125.71235073038231 553.0290773320585 L -125.55250019961339 552.4622901031656 L -125.34867282123439 551.9097918182396 L -125.10212525881249 551.3749888129312 L -124.81437756005543 550.8611783256082 L -124.48720378521185 550.3715281687843 L -124.12262106939997 549.9090571985014 L -123.72287718629885 549.4766167020787 L -123.29043668987612 549.0768728189776 L -122.8279657195933 548.7122901031656 L -122.33831556276935 548.385116328322 L -121.82450507544634 548.097368629565 L -121.2897020701379 547.8508210671431 L -120.73720378521183 547.6469936887642 L -120.17041655631901 547.4871431579952 L -119.59283481520146 547.3722550065143 L -119.00801954535855 547.3030375579793 L -118.41957632739971 547.2799175609778 L -117.83113310944087 547.3030375579793 L -117.24631783959798 547.3722550065143 L -116.66873609848041 547.4871431579952 L -116.1019488695876 547.6469936887642 L -115.54945058466153 547.8508210671431 L -115.0146475793531 548.097368629565 L -114.50083709203008 548.385116328322 L -114.01118693520615 548.7122901031657 L -113.54871596492332 549.0768728189776 L -113.11627546850059 549.4766167020787 L -112.71653158539947 549.9090571985014 L -112.35194886958759 550.3715281687843 L -112.02477509474402 550.8611783256082 L -111.73702739598694 551.3749888129312 L -111.49047983356506 551.9097918182397 L -111.28665245518606 552.4622901031657 L -111.12680192441715 553.0290773320586 L -111.0119137729362 553.6066590731762 L -110.94269632440127 554.191474343019 Z" fill-opacity="1"/><text fill="none" stroke="rgb(255,255,255)" font-family="Source Sans Pro" font-size="18px" font-style="normal" font-weight="normal" text-decoration="normal" x="-118.41957632739974" y="547.2799175609778" text-anchor="middle" dominant-baseline="text-after-edge" stroke-opacity="0.5" stroke-linejoin="round" stroke-miterlimit="10" stroke-width="2">Number-phase code</text><text fill="rgb(50,108,110)" stroke="none" font-family="Source Sans Pro" font-size="18px" font-style="normal" font-weight="normal" text-decoration="normal" x="-118.41957632739974" y="547.2799175609778" text-anchor="middle" dominant-baseline="text-after-edge" fill-opacity="1">Number-phase code</text><path fill="rgb(50,108,110)" stroke="none" paint-order="stroke fill markers" d=" M 53.058795969431834 131.83053648258192 L 58.058795969431834 126.8305364825819 L 53.058795969431834 121.8305364825819 L 48.058795969431834 126.8305364825819 Z" fill-opacity="0.3"/><text fill="none" stroke="rgb(255,255,255)" font-family="Source Sans Pro" font-size="32px" font-style="normal" font-weight="bold" text-decoration="normal" x="53.058795969431834" y="121.8305364825819" text-anchor="middle" dominant-baseline="text-after-edge" stroke-opacity="0.15" stroke-linejoin="round" stroke-miterlimit="10" stroke-width="2">Bosonic code</text><text fill="rgb(50,108,110)" stroke="none" font-family="Source Sans Pro" font-size="32px" font-style="normal" font-weight="bold" text-decoration="normal" x="53.058795969431834" y="121.8305364825819" text-anchor="middle" dominant-baseline="text-after-edge" fill-opacity="0.3">Bosonic code</text><path fill="rgb(50,108,110)" stroke="none" paint-order="stroke fill markers" d=" M 85.64682497360374 605.1515994521684 L 85.6237049766022 605.7400426701272 L 85.55448752806727 606.3248579399701 L 85.43959937658632 606.9024396810877 L 85.2797488458174 607.4692269099805 L 85.07592146743839 608.0217251949066 L 84.8293739050165 608.556528200215 L 84.54162620625944 609.070338687538 L 84.21445243141585 609.5599888443619 L 83.84986971560397 610.0224598146448 L 83.45012583250285 610.4549003110675 L 83.01768533608012 610.8546441941686 L 82.5552143657973 611.2192269099805 L 82.06556420897336 611.5464006848241 L 81.55175372165034 611.8341483835811 L 81.01695071634191 612.0806959460031 L 80.46445243141585 612.284523324382 L 79.89766520252303 612.444373855151 L 79.32008346140547 612.5592620066319 L 78.73526819156258 612.6284794551668 L 78.14682497360374 612.6515994521684 L 77.5583817556449 612.6284794551668 L 76.97356648580201 612.5592620066319 L 76.39598474468445 612.444373855151 L 75.82919751579163 612.284523324382 L 75.27669923086557 612.0806959460031 L 74.74189622555714 611.8341483835811 L 74.22808573823413 611.5464006848241 L 73.7384355814102 611.2192269099805 L 73.27596461112736 610.8546441941686 L 72.84352411470464 610.4549003110675 L 72.44378023160351 610.0224598146448 L 72.07919751579163 609.5599888443619 L 71.75202374094805 609.070338687538 L 71.46427604219099 608.556528200215 L 71.2177284797691 608.0217251949066 L 71.01390110139009 607.4692269099805 L 70.85405057062117 606.9024396810877 L 70.73916241914021 606.3248579399701 L 70.66994497060529 605.7400426701272 L 70.64682497360374 605.1515994521684 L 70.66994497060529 604.5631562342096 L 70.73916241914021 603.9783409643667 L 70.85405057062117 603.4007592232491 L 71.01390110139009 602.8339719943563 L 71.2177284797691 602.2814737094302 L 71.46427604219099 601.7466707041218 L 71.75202374094805 601.2328602167988 L 72.07919751579163 600.7432100599749 L 72.44378023160351 600.280739089692 L 72.84352411470464 599.8482985932693 L 73.27596461112736 599.4485547101682 L 73.73843558141019 599.0839719943563 L 74.22808573823413 598.7567982195127 L 74.74189622555714 598.4690505207557 L 75.27669923086557 598.2225029583337 L 75.82919751579165 598.0186755799548 L 76.39598474468447 597.8588250491858 L 76.97356648580202 597.7439368977049 L 77.55838175564493 597.67471944917 L 78.14682497360377 597.6515994521684 L 78.73526819156261 597.67471944917 L 79.3200834614055 597.7439368977049 L 79.89766520252307 597.8588250491858 L 80.46445243141588 598.0186755799548 L 81.01695071634195 598.2225029583337 L 81.55175372165039 598.4690505207557 L 82.0655642089734 598.7567982195127 L 82.55521436579733 599.0839719943564 L 83.01768533608016 599.4485547101682 L 83.45012583250289 599.8482985932693 L 83.84986971560402 600.280739089692 L 84.21445243141589 600.7432100599749 L 84.54162620625947 601.2328602167988 L 84.82937390501654 601.7466707041218 L 85.07592146743842 602.2814737094303 L 85.27974884581742 602.8339719943564 L 85.43959937658633 603.4007592232492 L 85.55448752806728 603.9783409643668 L 85.62370497660221 604.5631562342096 Z" fill-opacity="1"/><text fill="none" stroke="rgb(255,255,255)" font-family="Source Sans Pro" font-size="32px" font-style="normal" font-weight="bold" text-decoration="normal" x="78.14682497360374" y="597.6515994521684" text-anchor="middle" dominant-baseline="text-after-edge" stroke-opacity="0.5" stroke-linejoin="round" stroke-miterlimit="10" stroke-width="2">Cat code</text><text fill="rgb(50,108,110)" stroke="none" font-family="Source Sans Pro" font-size="32px" font-style="normal" font-weight="bold" text-decoration="normal" x="78.14682497360374" y="597.6515994521684" text-anchor="middle" dominant-baseline="text-after-edge" fill-opacity="1">Cat code</text><path fill="rgb(50,108,110)" stroke="none" paint-order="stroke fill markers" d=" M 6.747276448569124 708.5488047557634 L 6.724156451567584 709.1372479737222 L 6.654939003032657 709.7220632435651 L 6.540050851551698 710.2996449846827 L 6.380200320782776 710.8664322135755 L 6.176372942403775 711.4189304985016 L 5.929825379981883 711.95373350381 L 5.642077681224816 712.467543991133 L 5.314903906381231 712.9571941479569 L 4.9503211905693565 713.4196651182398 L 4.550577307468231 713.8521056146625 L 4.118136811045502 714.2518494977636 L 3.6556658407626728 714.6164322135755 L 3.166015683938741 714.9436059884191 L 2.6522051966157254 715.2313536871761 L 2.1174021913072982 715.4779012495981 L 1.5649039063812302 715.681728627977 L 0.9981166774884154 715.841579158746 L 0.42053493637085637 715.9564673102269 L -0.1642803334720382 716.0256847587618 L -0.7527235514308752 716.0488047557634 L -1.3411667693897122 716.0256847587618 L -1.9259820392326068 715.9564673102269 L -2.5035637803501656 715.841579158746 L -3.0703510092429807 715.681728627977 L -3.6228492941690487 715.4779012495981 L -4.157652299477476 715.2313536871761 L -4.671462786800491 714.9436059884191 L -5.161112943624423 714.6164322135755 L -5.623583913907252 714.2518494977636 L -6.056024410329981 713.8521056146625 L -6.455768293431108 713.4196651182398 L -6.820351009242981 712.9571941479569 L -7.147524784086567 712.467543991133 L -7.435272482843634 711.95373350381 L -7.6818200452655265 711.4189304985016 L -7.885647423644527 710.8664322135755 L -8.045497954413449 710.2996449846827 L -8.160386105894407 709.7220632435651 L -8.229603554429335 709.1372479737222 L -8.252723551430876 708.5488047557634 L -8.229603554429335 707.9603615378046 L -8.160386105894409 707.3755462679617 L -8.04549795441345 706.7979645268441 L -7.885647423644528 706.2311772979513 L -7.681820045265527 705.6786790130252 L -7.435272482843635 705.1438760077168 L -7.147524784086568 704.6300655203938 L -6.820351009242982 704.1404153635699 L -6.455768293431109 703.677944393287 L -6.056024410329983 703.2455038968643 L -5.6235839139072565 702.8457600137632 L -5.161112943624425 702.4811772979513 L -4.67146278680049 702.1540035231077 L -4.157652299477472 701.8662558243507 L -3.6228492941690407 701.6197082619287 L -3.07035100924297 701.4158808835498 L -2.5035637803501514 701.2560303527808 L -1.9259820392325888 701.1411422012999 L -1.341166769389691 701.071924752765 L -0.7527235514308503 701.0488047557634 L -0.1642803334720101 701.071924752765 L 0.42053493637088724 701.1411422012999 L 0.9981166774884491 701.2560303527808 L 1.5649039063812666 701.4158808835498 L 2.1174021913073364 701.6197082619287 L 2.6522051966157654 701.8662558243507 L 3.166015683938782 702.1540035231077 L 3.6556658407627145 702.4811772979514 L 4.118136811045543 702.8457600137632 L 4.550577307468272 703.2455038968643 L 4.9503211905693965 703.677944393287 L 5.314903906381269 704.1404153635699 L 5.642077681224851 704.6300655203938 L 5.929825379981916 705.1438760077168 L 6.176372942403804 705.6786790130253 L 6.3802003207828 706.2311772979514 L 6.540050851551718 706.7979645268442 L 6.654939003032671 707.3755462679618 L 6.724156451567591 707.9603615378046 Z" fill-opacity="1"/><text fill="none" stroke="rgb(255,255,255)" font-family="Source Sans Pro" font-size="32px" font-style="normal" font-weight="bold" text-decoration="normal" x="-0.7527235514308757" y="701.0488047557634" text-anchor="middle" dominant-baseline="text-after-edge" stroke-opacity="0.5" stroke-linejoin="round" stroke-miterlimit="10" stroke-width="2">Two-component cat code</text><text fill="rgb(50,108,110)" stroke="none" font-family="Source Sans Pro" font-size="32px" font-style="normal" font-weight="bold" text-decoration="normal" x="-0.7527235514308757" y="701.0488047557634" text-anchor="middle" dominant-baseline="text-after-edge" fill-opacity="1">Two-component cat code</text><path fill="rgb(50,108,110)" stroke="none" paint-order="stroke fill markers" d=" M 105.95495739561413 219.00032607845017 L 105.93954406427977 219.3926215570894 L 105.89339909858982 219.78249840365132 L 105.81680699760251 220.1675528977297 L 105.7102399770899 220.5454110503249 L 105.57435505817057 220.9137432402756 L 105.40999001655597 221.2702785771479 L 105.2181582173846 221.61281890202991 L 105.00004236748887 221.93925233991254 L 104.75698722361429 222.2475663201011 L 104.49049130154687 222.5358599843829 L 104.20219763726504 222.80235590645032 L 103.8938836570765 223.0454110503249 L 103.56745021919387 223.26352690022063 L 103.22490989431186 223.455358699392 L 102.86837455743958 223.6197237410066 L 102.50004236748887 223.75560865992594 L 102.12218421489366 223.86217568043855 L 101.73712972081529 223.93876778142587 L 101.34725287425336 223.9849127471158 L 100.95495739561413 224.00032607845017 L 100.5626619169749 223.9849127471158 L 100.17278507041297 223.93876778142587 L 99.78773057633461 223.86217568043855 L 99.40987242373939 223.75560865992594 L 99.04154023378868 223.6197237410066 L 98.6850048969164 223.455358699392 L 98.34246457203439 223.26352690022063 L 98.01603113415176 223.0454110503249 L 97.70771715396322 222.80235590645032 L 97.41942348968139 222.5358599843829 L 97.15292756761397 222.2475663201011 L 96.90987242373939 221.93925233991254 L 96.69175657384366 221.61281890202991 L 96.4999247746723 221.2702785771479 L 96.33555973305769 220.9137432402756 L 96.19967481413836 220.5454110503249 L 96.09310779362575 220.1675528977297 L 96.01651569263844 219.78249840365132 L 95.97037072694849 219.3926215570894 L 95.95495739561413 219.00032607845017 L 95.97037072694849 218.60803059981095 L 96.01651569263844 218.21815375324903 L 96.09310779362575 217.83309925917064 L 96.19967481413836 217.45524110657544 L 96.33555973305769 217.08690891662474 L 96.4999247746723 216.73037357975244 L 96.69175657384366 216.38783325487043 L 96.90987242373939 216.0613998169878 L 97.15292756761397 215.75308583679924 L 97.41942348968139 215.46479217251743 L 97.70771715396322 215.19829625045003 L 98.01603113415176 214.95524110657544 L 98.34246457203439 214.73712525667972 L 98.6850048969164 214.54529345750834 L 99.04154023378868 214.38092841589375 L 99.4098724237394 214.2450434969744 L 99.78773057633461 214.1384764764618 L 100.17278507041298 214.06188437547448 L 100.56266191697492 214.01573940978454 L 100.95495739561414 214.00032607845017 L 101.34725287425337 214.01573940978454 L 101.7371297208153 214.06188437547448 L 102.12218421489368 214.1384764764618 L 102.50004236748889 214.2450434969744 L 102.86837455743961 214.38092841589375 L 103.22490989431189 214.54529345750834 L 103.5674502191939 214.73712525667972 L 103.89388365707653 214.95524110657544 L 104.20219763726507 215.19829625045003 L 104.4904913015469 215.46479217251746 L 104.75698722361432 215.75308583679927 L 105.00004236748889 216.06139981698783 L 105.21815821738461 216.38783325487046 L 105.409990016556 216.73037357975247 L 105.57435505817058 217.08690891662476 L 105.71023997708991 217.45524110657547 L 105.81680699760253 217.8330992591707 L 105.89339909858982 218.21815375324908 L 105.93954406427977 218.608030599811 Z" fill-opacity="0.3"/><text fill="none" stroke="rgb(255,255,255)" font-family="Source Sans Pro" font-size="18px" font-style="normal" font-weight="normal" text-decoration="normal" x="100.95495739561413" y="214.00032607845017" text-anchor="middle" dominant-baseline="text-after-edge" stroke-opacity="0.15" stroke-linejoin="round" stroke-miterlimit="10" stroke-width="2">Qudit-into-oscillator code</text><text fill="rgb(50,108,110)" stroke="none" font-family="Source Sans Pro" font-size="18px" font-style="normal" font-weight="normal" text-decoration="normal" x="100.95495739561413" y="214.00032607845017" text-anchor="middle" dominant-baseline="text-after-edge" fill-opacity="0.3">Qudit-into-oscillator code</text><g transform="scale(1,1) translate(-387.6786577699303,-22)"/></g></svg>