<svg version="1.1" xmlns="http://www.w3.org/2000/svg" xmlns:xlink="http://www.w3.org/1999/xlink" width="588" height="522"><style>@import url('https://fonts.googleapis.com/css2?family=Source+Sans+Pro:ital,wght@0,300;0,400;0,600;1,300;1,400;1,600&#x26;display=swap');</style><defs/><g transform="translate(271.41748631637137,22) scale(1,1)"><path fill="none" stroke="rgb(0,48,127)" paint-order="fill stroke markers" d=" M 9.28173895787693 126.65826122173432 L 0.7746589242203914 27.985216369470365" stroke-opacity="0.3" stroke-linejoin="round" stroke-miterlimit="10" stroke-width="2"/><path fill="rgb(255,255,255)" stroke="none" paint-order="stroke fill markers" d=" M 5.5122938210734 32.294197175197 L 0.43107416247231356 24 L -3.155551782524633 33.041494031999065 Z" fill-opacity="1"/><path fill="rgb(0,48,127)" stroke="none" paint-order="stroke fill markers" d=" M 5.5122938210734 32.294197175197 L 0.43107416247231356 24 L -3.155551782524633 33.041494031999065 Z" fill-opacity="0.3"/><path fill="none" stroke="rgb(0,48,127)" paint-order="fill stroke markers" d=" M 135.865632140591 390.0004434470111 L -3.2487036044469164 334.82192732134706" stroke-opacity="0.667" stroke-linejoin="round" stroke-miterlimit="10" stroke-width="2"/><path fill="rgb(255,255,255)" stroke="none" paint-order="stroke fill markers" d=" M 2.7240136517524256 332.511267550308 L -6.966900847546668 333.34713606106465 L -0.48365733936187905 340.5983465540499 Z" fill-opacity="1"/><path fill="rgb(0,48,127)" stroke="none" paint-order="stroke fill markers" d=" M 2.7240136517524256 332.511267550308 L -6.966900847546668 333.34713606106465 L -0.48365733936187905 340.5983465540499 Z" fill-opacity="0.667"/><path fill="none" stroke="rgb(0,48,127)" paint-order="fill stroke markers" d=" M 138.41228986533113 386.7101250323699 L 30.646979692311803 239.23350785742429" stroke-opacity="0.667" stroke-linejoin="round" stroke-miterlimit="10" stroke-width="2" stroke-dasharray="1,1"/><path fill="rgb(255,255,255)" stroke="none" paint-order="stroke fill markers" d=" M 36.93217612149923 240.46184243990965 L 28.286999902406805 236.00388010933318 L 29.907735769401093 245.594798482953 Z" fill-opacity="1"/><path fill="rgb(0,48,127)" stroke="none" paint-order="stroke fill markers" d=" M 36.93217612149923 240.46184243990965 L 28.286999902406805 236.00388010933318 L 29.907735769401093 245.594798482953 Z" fill-opacity="0.667"/><path fill="none" stroke="rgb(0,48,127)" paint-order="fill stroke markers" d=" M 24.120756366764383 225.1701236449756 L 10.953060434078006 139.54846953543222" stroke-opacity="0.3" stroke-linejoin="round" stroke-miterlimit="10" stroke-width="2"/><path fill="rgb(255,255,255)" stroke="none" paint-order="stroke fill markers" d=" M 15.966924888758319 143.5326461417203 L 10.345051197904228 135.59494898170703 L 7.368017684406074 144.85506623039825 Z" fill-opacity="1"/><path fill="rgb(0,48,127)" stroke="none" paint-order="stroke fill markers" d=" M 15.966924888758319 143.5326461417203 L 10.345051197904228 135.59494898170703 L 7.368017684406074 144.85506623039825 Z" fill-opacity="0.3"/><path fill="none" stroke="rgb(0,48,127)" paint-order="fill stroke markers" d=" M -11.183858858613828 323.60609867650885 L 21.5280586416915 240.76764793208275" stroke-opacity="0.667" stroke-linejoin="round" stroke-miterlimit="10" stroke-width="2"/><path fill="rgb(255,255,255)" stroke="none" paint-order="stroke fill markers" d=" M 23.847770088803287 246.73685548435787 L 22.997211612222095 237.0472192539354 L 15.75583771383283 243.54144777345383 Z" fill-opacity="1"/><path fill="rgb(0,48,127)" stroke="none" paint-order="stroke fill markers" d=" M 23.847770088803287 246.73685548435787 L 22.997211612222095 237.0472192539354 L 15.75583771383283 243.54144777345383 Z" fill-opacity="0.667"/><path fill="none" stroke="rgb(0,48,127)" paint-order="fill stroke markers" d=" M 103.10292618257608 483.9543644647704 L 138.24343707160034 403.30829839756154" stroke-opacity="0.667" stroke-linejoin="round" stroke-miterlimit="10" stroke-width="2"/><path fill="rgb(255,255,255)" stroke="none" paint-order="stroke fill markers" d=" M 140.35382600978673 409.3546823193433 L 139.84128573240127 399.6412996714673 L 132.3781037805318 405.8793614821013 Z" fill-opacity="1"/><path fill="rgb(0,48,127)" stroke="none" paint-order="stroke fill markers" d=" M 140.35382600978673 409.3546823193433 L 139.84128573240127 399.6412996714673 L 132.3781037805318 405.8793614821013 Z" fill-opacity="0.667"/><path fill="none" stroke="rgb(0,48,127)" paint-order="fill stroke markers" d=" M -197.4757254118118 353.5887228572675 L -25.349220732016704 332.0122605449636" stroke-opacity="0.667" stroke-linejoin="round" stroke-miterlimit="10" stroke-width="2"/><path fill="rgb(255,255,255)" stroke="none" paint-order="stroke fill markers" d=" M -29.471675734673518 336.91306300487463 L -21.380281582918258 331.5147446851624 L -30.553772729741205 328.28062035558554 Z" fill-opacity="1"/><path fill="rgb(0,48,127)" stroke="none" paint-order="stroke fill markers" d=" M -29.471675734673518 336.91306300487463 L -21.380281582918258 331.5147446851624 L -30.553772729741205 328.28062035558554 Z" fill-opacity="0.667"/><path fill="rgb(50,108,110)" stroke="none" paint-order="stroke fill markers" d=" M 0 14 L 2.5 14 L 2.5 14 A 2.5 2.5 0 0 1 5 16.5 L 5 21.5 L 5 21.5 A 2.5 2.5 0 0 1 2.5 24 L -2.5 24 L -2.5 24 A 2.5 2.5 0 0 1 -5 21.5 L -5 16.5 L -5 16.5 A 2.5 2.5 0 0 1 -2.5 14 L 0 14 Z" fill-opacity="0.3"/><text fill="none" stroke="rgb(255,255,255)" font-family="Source Sans Pro" font-size="32px" font-style="normal" font-weight="bold" text-decoration="normal" x="0" y="14" text-anchor="middle" dominant-baseline="text-after-edge" stroke-opacity="0.15" stroke-linejoin="round" stroke-miterlimit="10" stroke-width="2">Quantum Domain</text><text fill="rgb(50,108,110)" stroke="none" font-family="Source Sans Pro" font-size="32px" font-style="normal" font-weight="bold" text-decoration="normal" x="0" y="14" text-anchor="middle" dominant-baseline="text-after-edge" fill-opacity="0.3">Quantum Domain</text><path fill="rgb(50,108,110)" stroke="none" paint-order="stroke fill markers" d=" M 9.678597985738264 136.26140219387298 L 14.678597985738264 131.26140219387298 L 9.678597985738264 126.26140219387298 L 4.678597985738264 131.26140219387298 Z" fill-opacity="0.3"/><text fill="none" stroke="rgb(255,255,255)" font-family="Source Sans Pro" font-size="32px" font-style="normal" font-weight="bold" text-decoration="normal" x="9.678597985738264" y="126.26140219387298" text-anchor="middle" dominant-baseline="text-after-edge" stroke-opacity="0.15" stroke-linejoin="round" stroke-miterlimit="10" stroke-width="2">Qubit Kingdom</text><text fill="rgb(50,108,110)" stroke="none" font-family="Source Sans Pro" font-size="32px" font-style="normal" font-weight="bold" text-decoration="normal" x="9.678597985738264" y="126.26140219387298" text-anchor="middle" dominant-baseline="text-after-edge" fill-opacity="0.3">Qubit Kingdom</text><path fill="rgb(50,108,110)" stroke="none" paint-order="stroke fill markers" d=" M 150.33725197140302 392.7656770600407 L 150.31413197440148 393.3541202779995 L 150.24491452586656 393.9389355478424 L 150.1300263743856 394.51651728895996 L 149.97017584361666 395.08330451785275 L 149.76634846523768 395.63580280277887 L 149.51980090281577 396.17060580808726 L 149.2320532040587 396.6844162954103 L 148.90487942921513 397.17406645223423 L 148.54029671340325 397.63653742251705 L 148.1405528303021 398.06897791893977 L 147.7081123338794 398.46872180204093 L 147.24564136359658 398.83330451785275 L 146.75599120677265 399.1604782926964 L 146.24218071944964 399.44822599145346 L 145.7073777141412 399.69477355387534 L 145.15487942921513 399.89860093225434 L 144.5880922003223 400.05845146302323 L 144.01051045920474 400.1733396145042 L 143.42569518936185 400.24255706303916 L 142.83725197140302 400.2656770600407 L 142.2488087534442 400.24255706303916 L 141.6639934836013 400.1733396145042 L 141.08641174248373 400.05845146302323 L 140.5196245135909 399.89860093225434 L 139.96712622866485 399.69477355387534 L 139.43232322335643 399.44822599145346 L 138.9185127360334 399.1604782926964 L 138.42886257920946 398.83330451785275 L 137.96639160892664 398.46872180204093 L 137.53395111250393 398.06897791893977 L 137.1342072294028 397.63653742251705 L 136.7696245135909 397.17406645223423 L 136.44245073874734 396.6844162954103 L 136.15470303999027 396.17060580808726 L 135.90815547756836 395.63580280277887 L 135.70432809918938 395.08330451785275 L 135.54447756842043 394.51651728895996 L 135.42958941693948 393.9389355478424 L 135.36037196840456 393.3541202779995 L 135.33725197140302 392.7656770600407 L 135.36037196840456 392.1772338420818 L 135.42958941693948 391.59241857223896 L 135.54447756842043 391.0148368311214 L 135.70432809918935 390.4480496022286 L 135.90815547756836 389.8955513173025 L 136.15470303999027 389.3607483119941 L 136.44245073874734 388.84693782467104 L 136.7696245135909 388.3572876678471 L 137.1342072294028 387.8948166975643 L 137.5339511125039 387.4623762011416 L 137.96639160892664 387.06263231804047 L 138.42886257920946 386.6980496022286 L 138.9185127360334 386.37087582738496 L 139.43232322335643 386.0831281286279 L 139.96712622866485 385.836580566206 L 140.5196245135909 385.632753187827 L 141.08641174248373 385.4729026570581 L 141.6639934836013 385.35801450557716 L 142.2488087534442 385.2887970570422 L 142.83725197140305 385.2656770600407 L 143.42569518936187 385.2887970570422 L 144.0105104592048 385.35801450557716 L 144.58809220032234 385.4729026570581 L 145.15487942921516 385.632753187827 L 145.70737771414124 385.83658056620607 L 146.24218071944966 386.08312812862795 L 146.75599120677268 386.370875827385 L 147.2456413635966 386.6980496022286 L 147.70811233387943 387.06263231804047 L 148.14055283030217 387.4623762011416 L 148.54029671340328 387.89481669756435 L 148.90487942921516 388.3572876678472 L 149.23205320405876 388.8469378246711 L 149.5198009028158 389.36074831199414 L 149.7663484652377 389.8955513173026 L 149.9701758436167 390.44804960222865 L 150.1300263743856 391.01483683112144 L 150.24491452586656 391.592418572239 L 150.31413197440148 392.17723384208193 Z" fill-opacity="1"/><text fill="none" stroke="rgb(255,255,255)" font-family="Source Sans Pro" font-size="18px" font-style="normal" font-weight="normal" text-decoration="normal" x="142.83725197140302" y="385.2656770600407" text-anchor="middle" dominant-baseline="text-after-edge" stroke-opacity="0.5" stroke-linejoin="round" stroke-miterlimit="10" stroke-width="2">Calderbank-Shor-Steane (CSS) stabilizer code</text><text fill="rgb(50,108,110)" stroke="none" font-family="Source Sans Pro" font-size="18px" font-style="normal" font-weight="normal" text-decoration="normal" x="142.83725197140302" y="385.2656770600407" text-anchor="middle" dominant-baseline="text-after-edge" fill-opacity="1">Calderbank-Shor-Steane (CSS) stabilizer code</text><path fill="rgb(50,108,110)" stroke="none" paint-order="stroke fill markers" d=" M 25.12043618501333 239.17044382672665 L 32.62043618501333 231.67044382672665 L 25.12043618501333 224.17044382672665 L 17.62043618501333 231.67044382672665 Z" fill-opacity="1"/><text fill="none" stroke="rgb(255,255,255)" font-family="Source Sans Pro" font-size="18px" font-style="normal" font-weight="normal" text-decoration="normal" x="25.12043618501333" y="224.17044382672665" text-anchor="middle" dominant-baseline="text-after-edge" stroke-opacity="0.5" stroke-linejoin="round" stroke-miterlimit="10" stroke-width="2">Qubit code</text><text fill="rgb(50,108,110)" stroke="none" font-family="Source Sans Pro" font-size="18px" font-style="normal" font-weight="normal" text-decoration="normal" x="25.12043618501333" y="224.17044382672665" text-anchor="middle" dominant-baseline="text-after-edge" fill-opacity="1">Qubit code</text><path fill="rgb(50,108,110)" stroke="none" paint-order="stroke fill markers" d=" M -6.438520678358685 330.58190244803507 L -6.461640675360226 331.1703456659939 L -6.530858123895152 331.7551609358368 L -6.645746275376111 332.33274267695435 L -6.805596806145034 332.89952990584715 L -7.009424184524034 333.45202819077326 L -7.255971746945926 333.98683119608165 L -7.543719445702994 334.5006416834047 L -7.870893220546579 334.9902918402286 L -8.235475936358453 335.45276281051144 L -8.635219819459579 335.88520330693416 L -9.067660315882307 336.2849471900353 L -9.530131286165137 336.64952990584715 L -10.019781442989068 336.9767036806908 L -10.533591930312085 337.26445137944785 L -11.06839493562051 337.51099894186973 L -11.620893220546579 337.71482632024873 L -12.187680449439394 337.8746768510176 L -12.765262190556953 337.9895650024986 L -13.350077460399849 338.05878245103355 L -13.938520678358685 338.08190244803507 L -14.526963896317522 338.05878245103355 L -15.111779166160417 337.9895650024986 L -15.689360907277976 337.8746768510176 L -16.25614813617079 337.71482632024873 L -16.80864642109686 337.51099894186973 L -17.343449426405286 337.26445137944785 L -17.8572599137283 336.9767036806908 L -18.346910070552234 336.64952990584715 L -18.809381040835063 336.2849471900353 L -19.241821537257792 335.88520330693416 L -19.641565420358916 335.45276281051144 L -20.00614813617079 334.9902918402286 L -20.333321911014377 334.5006416834047 L -20.621069609771443 333.98683119608165 L -20.867617172193334 333.45202819077326 L -21.071444550572338 332.89952990584715 L -21.23129508134126 332.33274267695435 L -21.346183232822217 331.7551609358368 L -21.415400681357145 331.1703456659939 L -21.438520678358685 330.58190244803507 L -21.415400681357145 329.9934592300762 L -21.34618323282222 329.40864396023335 L -21.23129508134126 328.8310622191158 L -21.071444550572338 328.264274990223 L -20.867617172193338 327.71177670529687 L -20.621069609771446 327.1769736999885 L -20.333321911014377 326.66316321266544 L -20.006148136170793 326.1735130558415 L -19.64156542035892 325.7110420855587 L -19.241821537257792 325.278601589136 L -18.809381040835067 324.87885770603486 L -18.346910070552234 324.514274990223 L -17.8572599137283 324.18710121537936 L -17.343449426405282 323.8993535166223 L -16.80864642109685 323.6528059542004 L -16.25614813617078 323.4489785758214 L -15.689360907277962 323.2891280450525 L -15.111779166160398 323.17423989357155 L -14.5269638963175 323.1050224450366 L -13.93852067835866 323.08190244803507 L -13.35007746039982 323.1050224450366 L -12.765262190556923 323.17423989357155 L -12.18768044943936 323.2891280450525 L -11.620893220546543 323.4489785758214 L -11.068394935620473 323.6528059542004 L -10.533591930312044 323.89935351662234 L -10.019781442989029 324.1871012153794 L -9.530131286165094 324.514274990223 L -9.067660315882266 324.87885770603486 L -8.635219819459538 325.278601589136 L -8.235475936358412 325.71104208555874 L -7.870893220546541 326.17351305584157 L -7.543719445702958 326.6631632126655 L -7.255971746945893 327.17697369998854 L -7.009424184524006 327.711776705297 L -6.80559680614501 328.26427499022304 L -6.645746275376092 328.83106221911584 L -6.530858123895139 329.4086439602334 L -6.4616406753602185 329.9934592300763 Z" fill-opacity="1"/><text fill="none" stroke="rgb(255,255,255)" font-family="Source Sans Pro" font-size="18px" font-style="normal" font-weight="normal" text-decoration="normal" x="-13.938520678358685" y="323.08190244803507" text-anchor="middle" dominant-baseline="text-after-edge" stroke-opacity="0.5" stroke-linejoin="round" stroke-miterlimit="10" stroke-width="2">Stabilizer code</text><text fill="rgb(50,108,110)" stroke="none" font-family="Source Sans Pro" font-size="18px" font-style="normal" font-weight="normal" text-decoration="normal" x="-13.938520678358685" y="323.08190244803507" text-anchor="middle" dominant-baseline="text-after-edge" fill-opacity="1">Stabilizer code</text><path fill="rgb(50,108,110)" stroke="none" paint-order="stroke fill markers" d=" M 107.60695994357435 490.8299870761971 L 107.58383994657281 491.41843029415594 L 107.51462249803788 492.0032455639988 L 107.39973434655693 492.5808273051164 L 107.239883815788 493.14761453400916 L 107.036056437409 493.7001128189353 L 106.7895088749871 494.23491582424367 L 106.50176117623005 494.7487263115667 L 106.17458740138646 495.23837646839064 L 105.81000468557458 495.70084743867346 L 105.41026080247346 496.1332879350962 L 104.97782030605073 496.53303181819734 L 104.5153493357679 496.89761453400916 L 104.02569917894397 497.2247883088528 L 103.51188869162095 497.51253600760987 L 102.97708568631252 497.75908357003175 L 102.42458740138646 497.96291094841075 L 101.85780017249364 498.12276147917964 L 101.28021843137608 498.2376496306606 L 100.69540316153319 498.30686707919557 L 100.10695994357435 498.3299870761971 L 99.51851672561551 498.30686707919557 L 98.93370145577262 498.2376496306606 L 98.35611971465507 498.12276147917964 L 97.78933248576224 497.96291094841075 L 97.23683420083619 497.75908357003175 L 96.70203119552775 497.51253600760987 L 96.18822070820474 497.2247883088528 L 95.69857055138081 496.89761453400916 L 95.23609958109797 496.53303181819734 L 94.80365908467525 496.1332879350962 L 94.40391520157412 495.70084743867346 L 94.03933248576224 495.23837646839064 L 93.71215871091866 494.7487263115667 L 93.4244110121616 494.23491582424367 L 93.1778634497397 493.7001128189353 L 92.9740360713607 493.14761453400916 L 92.81418554059178 492.5808273051164 L 92.69929738911082 492.0032455639988 L 92.6300799405759 491.41843029415594 L 92.60695994357435 490.8299870761971 L 92.6300799405759 490.24154385823823 L 92.69929738911082 489.65672858839537 L 92.81418554059178 489.0791468472778 L 92.9740360713607 488.512359618385 L 93.1778634497397 487.9598613334589 L 93.4244110121616 487.4250583281505 L 93.71215871091866 486.91124784082746 L 94.03933248576224 486.42159768400353 L 94.40391520157412 485.9591267137207 L 94.80365908467525 485.526686217298 L 95.23609958109797 485.1269423341969 L 95.6985705513808 484.762359618385 L 96.18822070820474 484.4351858435414 L 96.70203119552775 484.1474381447843 L 97.23683420083619 483.9008905823624 L 97.78933248576226 483.6970632039834 L 98.35611971465508 483.5372126732145 L 98.93370145577263 483.4223245217336 L 99.51851672561554 483.3531070731986 L 100.10695994357438 483.3299870761971 L 100.69540316153322 483.3531070731986 L 101.28021843137611 483.4223245217336 L 101.85780017249368 483.5372126732145 L 102.42458740138649 483.6970632039834 L 102.97708568631256 483.9008905823624 L 103.511888691621 484.14743814478436 L 104.02569917894401 484.43518584354143 L 104.51534933576794 484.762359618385 L 104.97782030605077 485.1269423341969 L 105.4102608024735 485.526686217298 L 105.81000468557463 485.95912671372076 L 106.1745874013865 486.4215976840036 L 106.50176117623008 486.9112478408275 L 106.78950887498715 487.42505832815056 L 107.03605643740903 487.959861333459 L 107.23988381578803 488.51235961838506 L 107.39973434655694 489.07914684727785 L 107.5146224980379 489.6567285883954 L 107.58383994657282 490.24154385823834 Z" fill-opacity="1"/><text fill="none" stroke="rgb(255,255,255)" font-family="Source Sans Pro" font-size="18px" font-style="normal" font-weight="normal" text-decoration="normal" x="100.10695994357435" y="483.3299870761971" text-anchor="middle" dominant-baseline="text-after-edge" stroke-opacity="0.5" stroke-linejoin="round" stroke-miterlimit="10" stroke-width="2">Kitaev's surface code</text><text fill="rgb(50,108,110)" stroke="none" font-family="Source Sans Pro" font-size="18px" font-style="normal" font-weight="normal" text-decoration="normal" x="100.10695994357435" y="483.3299870761971" text-anchor="middle" dominant-baseline="text-after-edge" fill-opacity="1">Kitaev's surface code</text><path fill="rgb(50,108,110)" stroke="none" paint-order="stroke fill markers" d=" M -197.41748631637137 354.5215650943948 L -197.4406063133729 355.11000831235367 L -197.50982376190782 355.69482358219653 L -197.62471191338878 356.2724053233141 L -197.78456244415773 356.8391925522069 L -197.9883898225367 357.391690837133 L -198.2349373849586 357.9264938424414 L -198.5226850837157 358.44030432976444 L -198.84985885855926 358.9299544865884 L -199.21444157437114 359.3924254568712 L -199.61418545747227 359.8248659532939 L -200.046625953895 360.2246098363951 L -200.5090969241778 360.5891925522069 L -200.99874708100174 360.9163663270505 L -201.51255756832475 361.2041140258076 L -202.0473605736332 361.4506615882295 L -202.59985885855926 361.6544889666085 L -203.16664608745208 361.8143394973774 L -203.74422782856965 361.92922764885833 L -204.32904309841254 361.9984450973933 L -204.91748631637137 362.0215650943948 L -205.5059295343302 361.9984450973933 L -206.09074480417308 361.92922764885833 L -206.66832654529065 361.8143394973774 L -207.23511377418347 361.6544889666085 L -207.78761205910953 361.4506615882295 L -208.32241506441795 361.2041140258076 L -208.836225551741 360.9163663270505 L -209.32587570856492 360.5891925522069 L -209.78834667884774 360.2246098363951 L -210.22078717527046 359.8248659532939 L -210.6205310583716 359.3924254568712 L -210.98511377418347 358.9299544865884 L -211.31228754902705 358.44030432976444 L -211.60003524778412 357.9264938424414 L -211.84658281020603 357.391690837133 L -212.050410188585 356.8391925522069 L -212.21026071935395 356.2724053233141 L -212.3251488708349 355.69482358219653 L -212.39436631936982 355.11000831235367 L -212.41748631637137 354.5215650943948 L -212.39436631936982 353.93312187643596 L -212.3251488708349 353.3483066065931 L -212.21026071935395 352.77072486547553 L -212.05041018858503 352.20393763658274 L -211.84658281020603 351.6514393516566 L -211.60003524778412 351.11663634634823 L -211.31228754902705 350.6028258590252 L -210.98511377418347 350.11317570220126 L -210.6205310583716 349.65070473191844 L -210.2207871752705 349.2182642354957 L -209.78834667884774 348.8185203523946 L -209.32587570856492 348.45393763658274 L -208.836225551741 348.1267638617391 L -208.32241506441795 347.83901616298203 L -207.78761205910953 347.59246860056015 L -207.23511377418347 347.38864122218115 L -206.66832654529065 347.22879069141226 L -206.09074480417308 347.1139025399313 L -205.5059295343302 347.04468509139633 L -204.91748631637134 347.0215650943948 L -204.3290430984125 347.04468509139633 L -203.7442278285696 347.1139025399313 L -203.16664608745205 347.22879069141226 L -202.59985885855923 347.38864122218115 L -202.04736057363314 347.5924686005602 L -201.51255756832472 347.8390161629821 L -200.9987470810017 348.12676386173916 L -200.50909692417778 348.45393763658274 L -200.04662595389496 348.8185203523946 L -199.61418545747222 349.2182642354957 L -199.2144415743711 349.6507047319185 L -198.84985885855923 350.1131757022013 L -198.52268508371563 350.60282585902524 L -198.23493738495858 351.1166363463483 L -197.98838982253667 351.65143935165673 L -197.7845624441577 352.2039376365828 L -197.62471191338878 352.7707248654756 L -197.50982376190782 353.34830660659316 L -197.4406063133729 353.9331218764361 Z" fill-opacity="1"/><text fill="none" stroke="rgb(255,255,255)" font-family="Source Sans Pro" font-size="18px" font-style="normal" font-weight="normal" text-decoration="normal" x="-204.91748631637137" y="347.0215650943948" text-anchor="middle" dominant-baseline="text-after-edge" stroke-opacity="0.5" stroke-linejoin="round" stroke-miterlimit="10" stroke-width="2">My Test x:y-Code</text><text fill="rgb(50,108,110)" stroke="none" font-family="Source Sans Pro" font-size="18px" font-style="normal" font-weight="normal" text-decoration="normal" x="-204.91748631637137" y="347.0215650943948" text-anchor="middle" dominant-baseline="text-after-edge" fill-opacity="1">My Test x:y-Code</text><g transform="scale(1,1) translate(-271.41748631637137,-22)"/></g></svg>